<svg id="b50cbda8-0bea-4da3-ba2c-822aaee23789" data-name="レイヤー 1" xmlns="http://www.w3.org/2000/svg" viewBox="0 0 151 67"><defs><style>.afde16e0-45a1-4cd6-9a5a-d3fe06a7e85a{fill:#21fcc6;opacity:0.9;}.ae905ef9-2ba8-43d0-be48-b1ebfea84466,.afde16e0-45a1-4cd6-9a5a-d3fe06a7e85a{isolation:isolate;}.a7bf7a2d-673e-403c-9cd7-ca53b47a5bb6{fill:none;stroke:#333;stroke-miterlimit:10;stroke-width:2px;}.a7989604-429f-420f-9ade-86e2ec357a86{fill:#1a1a1a;}</style></defs><title>campain2</title><g id="b73ca259-4271-494b-bcab-8509b0ec28d8" data-name="グループ 6-2"><path id="add90c4a-e1dd-43a8-a4b5-28cde6a02db3" data-name="パス 2-2" class="afde16e0-45a1-4cd6-9a5a-d3fe06a7e85a" d="M27.59,10,1.5,11.84,7.71,56.28l18.56,1.37"/><path id="af14596f-dab6-4c2d-9b8b-b664098fe1f9" data-name="パス 3-2" class="a7bf7a2d-673e-403c-9cd7-ca53b47a5bb6" d="M11.77,65.17l8.87-63.5L149.5,11.2l-6.21,44.45Z"/><path id="aa269757-289a-468a-8165-d38e13914f32" data-name="パス 4-2" class="afde16e0-45a1-4cd6-9a5a-d3fe06a7e85a" d="M26.27,57.65l104.17,7.68,9.06-63.5L27.59,10"/></g><g id="b0c776a4-cb1e-4e15-adc9-406323b918d5" data-name="セリーヌだけ " class="ae905ef9-2ba8-43d0-be48-b1ebfea84466"><g class="ae905ef9-2ba8-43d0-be48-b1ebfea84466"><path class="a7989604-429f-420f-9ade-86e2ec357a86" d="M36.06,25.61a10.45,10.45,0,0,0-.39-2.08,9.11,9.11,0,0,1,1.56.06c.16,0,.24.08.25.19a.34.34,0,0,1,0,.2,2.13,2.13,0,0,0,0,1.08l.14,1.22,3-1.08a1.65,1.65,0,0,0,.8-.44.24.24,0,0,1,.16-.09.26.26,0,0,1,.18,0,4.72,4.72,0,0,1,1,.67.31.31,0,0,1,.13.2.32.32,0,0,1-.13.26,1.69,1.69,0,0,0-.32.51,12.86,12.86,0,0,1-1.59,2.79.49.49,0,0,1-.29.21.37.37,0,0,1-.24-.06,3.91,3.91,0,0,0-1-.33,10.14,10.14,0,0,0,1.67-2.61l-3.18,1.21L38,30.28c.07.63.31.8,1.6.66a17.66,17.66,0,0,0,2.85-.6c.16,0,.18,0,.23.22a5.66,5.66,0,0,1,.22,1c0,.12,0,.17-.23.2a22.39,22.39,0,0,1-2.83.47c-2.27.27-3-.14-3.22-1.75l-.28-2.41-.74.29a12.75,12.75,0,0,0-1.62.71.36.36,0,0,1-.13.06c-.09,0-.14,0-.22-.17A8.37,8.37,0,0,1,33,27.79a19.31,19.31,0,0,0,2.19-.67l1-.37Z"/><path class="a7989604-429f-420f-9ade-86e2ec357a86" d="M45.39,24.08a7.9,7.9,0,0,0-.33-1.73,8.65,8.65,0,0,1,1.51.08c.14,0,.21.09.22.17a.38.38,0,0,1,0,.18,2.8,2.8,0,0,0,0,1.15L47,26.34c.07.62.15,1.08.21,1.49,0,.18,0,.25-.24.27l-.95.11c-.17,0-.24,0-.25-.17-.05-.42-.09-1.12-.15-1.63Zm5.87,1.58a6.16,6.16,0,0,1-.52,4,6.19,6.19,0,0,1-2.4,2.18,1.29,1.29,0,0,1-.25.09.39.39,0,0,1-.3-.12,4,4,0,0,0-1.1-.61,5.79,5.79,0,0,0,2.71-2.07,4.9,4.9,0,0,0,.43-3.27l-.26-2.25a8.28,8.28,0,0,0-.35-1.93,7.71,7.71,0,0,1,1.58.08.2.2,0,0,1,.19.19.32.32,0,0,1,0,.19,3.67,3.67,0,0,0,0,1.31Z"/><path class="a7989604-429f-420f-9ade-86e2ec357a86" d="M56.36,26.64a9.19,9.19,0,0,0-1.73.35.27.27,0,0,1-.3-.22A13.91,13.91,0,0,1,54,25.35a15.34,15.34,0,0,0,2.59-.16l3.84-.44c.9-.1,1.82-.23,2.74-.35.17,0,.21,0,.23.14a10.67,10.67,0,0,1,.13,1.12c0,.15,0,.2-.2.21l-2.66.28Z"/><path class="a7989604-429f-420f-9ade-86e2ec357a86" d="M71.57,19.87a2,2,0,0,0,.68-.16.3.3,0,0,1,.17-.08.32.32,0,0,1,.22.07,4.93,4.93,0,0,1,.84.66.37.37,0,0,1,.13.23.29.29,0,0,1-.11.27,1.22,1.22,0,0,0-.31.5,22.87,22.87,0,0,1-1.68,3.2,19.5,19.5,0,0,1,2.6,1.83.28.28,0,0,1,.12.16.56.56,0,0,1,0,.15,4.56,4.56,0,0,1-.62.86.32.32,0,0,1-.18.12.22.22,0,0,1-.16-.08,18.19,18.19,0,0,0-2.55-1.88,16.9,16.9,0,0,1-3.93,3.66.5.5,0,0,1-.2.09.38.38,0,0,1-.27-.09,3.39,3.39,0,0,0-1.08-.62A14.72,14.72,0,0,0,69.49,25a23.47,23.47,0,0,0-2.62-1.17,10.07,10.07,0,0,1,.58-.9c.11-.13.19-.17.33-.11a27.16,27.16,0,0,1,2.51,1.06,15.15,15.15,0,0,0,1.45-2.75l-3.64.42a17.67,17.67,0,0,0-1.88.3c-.1,0-.16-.06-.19-.25a11.72,11.72,0,0,1-.22-1.16c.76,0,1.38-.08,2.22-.17Z"/><path class="a7989604-429f-420f-9ade-86e2ec357a86" d="M81.8,19.49c.13,0,.18,0,.2.1.07.26.15.6.19.85s0,.19-.16.24a17.2,17.2,0,0,1-2,.69c-.5,2.74-.9,4.63-1.44,6.7,0,.17-.11.17-.24.15s-.74-.22-1-.33a.19.19,0,0,1-.12-.23,45.36,45.36,0,0,0,1.41-5.88c-.68.15-1.51.3-2.07.37-.18,0-.23,0-.27-.16s-.18-.65-.29-1.07a5.71,5.71,0,0,0,.88-.06,15.1,15.1,0,0,0,1.92-.35c.06-.49.1-1,.13-1.52a8.29,8.29,0,0,0-.06-1.1,6.93,6.93,0,0,1,1.54.16.18.18,0,0,1,.15.17.26.26,0,0,1,0,.2,2.25,2.25,0,0,0-.2.51c-.07.44-.11.85-.16,1.16C80.61,20,81.24,19.72,81.8,19.49ZM82,25.24a.16.16,0,0,1,.2.14c.19.86.81,1.05,2,.92a19.62,19.62,0,0,0,2-.4c.1,0,.14,0,.16.09a6.83,6.83,0,0,1,.21,1c0,.15,0,.18-.17.22a13.65,13.65,0,0,1-1.64.32c-1.52.17-2.36.05-3-.45A2.32,2.32,0,0,1,81,25.53,7.42,7.42,0,0,1,82,25.24ZM81.5,22.1c0-.17,0-.21.18-.27a12.71,12.71,0,0,1,2.3-.54,9.51,9.51,0,0,1,1.4,0c.17,0,.21,0,.23.16s.09.62.12.95,0,.26-.2.24a7.63,7.63,0,0,0-1.5,0,12.71,12.71,0,0,0-2.36.55C81.6,22.76,81.52,22.33,81.5,22.1Zm2.36-3.72c0-.05.1,0,.18,0a5.5,5.5,0,0,1,1.28,1.14.13.13,0,0,1,0,.2l-.45.42c-.08.07-.14.07-.21,0a5.86,5.86,0,0,0-1.36-1.24Zm1-.89c.07-.06.1,0,.18,0a4.87,4.87,0,0,1,1.27,1.1c.06.06.08.13,0,.22l-.43.42a.13.13,0,0,1-.21,0A5.53,5.53,0,0,0,84.28,18Z"/><path class="a7989604-429f-420f-9ade-86e2ec357a86" d="M90.93,26.06c0,.08,0,.12-.14.18a3,3,0,0,1-.79.35c-.14,0-.2,0-.29-.13a10.1,10.1,0,0,1-1.13-3.61A27.25,27.25,0,0,1,88.5,19a12.58,12.58,0,0,0-.07-1.79,5.51,5.51,0,0,1,1.3.27c.2.07.28.15.29.23A.49.49,0,0,1,90,18a7.9,7.9,0,0,0-.12.91,22.13,22.13,0,0,0,0,3.62,10,10,0,0,0,.33,1.87c.23-.66.4-1.09.6-1.79a3.68,3.68,0,0,0,.49.75.35.35,0,0,1,.13.21.85.85,0,0,1-.09.41,8.87,8.87,0,0,0-.37,1.52,1.07,1.07,0,0,0,0,.31Zm3.5-5.87c-.63.12-1.08.19-1.42.23s-.56.08-1,.12c-.17,0-.27,0-.3-.16s-.13-.55-.25-1.07c.44,0,1-.06,1.48-.11s.89-.12,1.32-.2c-.09-.59-.16-1.13-.26-1.58a3.42,3.42,0,0,0-.31-1,7.27,7.27,0,0,1,1.56,0c.13,0,.2.07.21.17a.48.48,0,0,1-.06.25,1.31,1.31,0,0,0,0,.5l.15,1.33c.51-.14,1-.28,1.5-.44.14-.05.2,0,.22.08a8.63,8.63,0,0,1,.2.88c0,.16,0,.21-.13.23-.56.18-1.07.31-1.61.43L96,21.73a6.16,6.16,0,0,1-.21,2.82,4.19,4.19,0,0,1-1.49,2,.51.51,0,0,1-.29.14.24.24,0,0,1-.25-.07,3.65,3.65,0,0,0-1-.48A3.91,3.91,0,0,0,94.5,24a6.55,6.55,0,0,0,.07-2.7Z"/><path class="a7989604-429f-420f-9ade-86e2ec357a86" d="M102.12,22.73l-1.21.14-1.15-7,1.86-.22Zm.36,1.13.18,1.61-1.69.19-.19-1.6Z"/></g></g><g id="ad9da75b-b976-445f-bf86-ae38f2e66c30" data-name="初心者でも安心 " class="ae905ef9-2ba8-43d0-be48-b1ebfea84466"><g class="ae905ef9-2ba8-43d0-be48-b1ebfea84466"><path class="a7989604-429f-420f-9ade-86e2ec357a86" d="M34.61,48a11.89,11.89,0,0,1-1,1.19c-.11.11-.19.17-.24.17s-.12-.07-.22-.25a3.4,3.4,0,0,0-.46-.7,10,10,0,0,0,2.72-4L34,44.5c-.89.1-1.18.16-1.25.17s-.13,0-.15-.12l-.1-.88c0-.12,0-.14.12-.15s.36,0,1.25-.12l.21,0L34.05,43a7.11,7.11,0,0,0-.26-1.43c.45,0,.81-.06,1.25-.06.12,0,.2.05.2.1a.59.59,0,0,1,0,.27,2.64,2.64,0,0,0,0,.94l.06.45.39,0a.47.47,0,0,0,.25-.09s.1-.09.15-.09.24.07.51.29.33.32.35.42,0,.12-.13.2a1.62,1.62,0,0,0-.21.42,15.72,15.72,0,0,1-.84,1.84,3.14,3.14,0,0,0,.49.47c.17-.28.31-.53.43-.78a4.54,4.54,0,0,0,.2-.62,8.46,8.46,0,0,1,.91.43c.1.08.13.1.14.18s0,.11-.1.15a.92.92,0,0,0-.25.3c-.21.33-.35.57-.57.89.28.17.58.34.89.49a3.87,3.87,0,0,0-.43.75c-.09.18-.13.27-.2.27s-.14,0-.27-.15a10.1,10.1,0,0,1-1.23-1l.38,3.29c.1.89.17,1.31.18,1.37s0,.13-.12.14l-1,.12c-.12,0-.14,0-.15-.12s0-.48-.13-1.37ZM40,43a17.61,17.61,0,0,1-.09,5.11,7.48,7.48,0,0,1-2,3.78c-.11.12-.16.19-.22.19s-.14-.07-.28-.22a3.07,3.07,0,0,0-.82-.59,6,6,0,0,0,2.09-3.55,15.08,15.08,0,0,0,0-4.57h-.06c-1.07.12-1.43.19-1.5.2s-.14,0-.15-.12l-.11-.94c0-.13,0-.15.12-.16s.44,0,1.51-.15L41,41.7c1.07-.12,1.44-.19,1.51-.2s.14,0,.16.14c0,.4.06.73.1,1.06a47.11,47.11,0,0,1,.41,7.08,1.57,1.57,0,0,1-1.57,1.74,8.52,8.52,0,0,1-.94.08c-.28,0-.29,0-.4-.41a2.23,2.23,0,0,0-.42-.86,7.2,7.2,0,0,0,1.38,0c.48,0,.67-.36.69-.91a45.66,45.66,0,0,0-.42-6.56Z"/><path class="a7989604-429f-420f-9ade-86e2ec357a86" d="M46.79,44.7c.17,0,.2,0,.2.16A15.32,15.32,0,0,1,46.36,49c0,.12-.07.15-.25.1l-.91-.29c-.18-.06-.2-.11-.16-.21a12.78,12.78,0,0,0,.67-4c0-.15,0-.15.2-.11ZM48,40.17c.08-.14.1-.15.23-.13a15.62,15.62,0,0,1,3.42,1.18c.12.05.13.08.06.23l-.4.92c-.08.17-.1.19-.22.13a14.31,14.31,0,0,0-3.44-1.32c-.08,0-.1,0-.11-.06a.5.5,0,0,1,0-.15Zm1.56,8.38c0,.28.12.44.28.49a2.56,2.56,0,0,0,1.05,0c.62-.07.94-.17,1.11-.38s.28-.59.12-2a4.43,4.43,0,0,0,1,.27c.32,0,.32,0,.35.36.1,1.35,0,1.87-.4,2.25a3.34,3.34,0,0,1-2.16.76,3.76,3.76,0,0,1-2-.06c-.34-.17-.54-.43-.62-1.12l-.53-4.58a9.24,9.24,0,0,0-.22-1.35,10.92,10.92,0,0,1,1.27,0c.2,0,.28.07.28.15a.34.34,0,0,1,0,.22c-.05.12-.06.28,0,.86Zm4-5.15c.14-.08.17-.1.24,0a16.27,16.27,0,0,1,2,3.46c0,.12,0,.15-.11.25l-.85.55c-.16.1-.19.1-.25,0a14.54,14.54,0,0,0-2-3.58c-.08-.1-.06-.15.09-.23Z"/><path class="a7989604-429f-420f-9ade-86e2ec357a86" d="M59.45,45.58c-.55.33-1.11.66-1.69,1a1.11,1.11,0,0,1-.25.11c-.1,0-.15-.07-.3-.27a3,3,0,0,0-.6-.63,24.88,24.88,0,0,0,4.55-2.62l-2.95.34c-1.05.12-1.41.18-1.48.19s-.13,0-.15-.11l-.09-.86c0-.11,0-.12.11-.14s.43,0,1.48-.14l2.53-.29L60.48,41l-1.09.13c-1.07.12-1.44.19-1.51.2s-.13,0-.14-.12l-.1-.85c0-.11,0-.13.12-.14s.44,0,1.51-.15l1.09-.13,0-.16a5.73,5.73,0,0,0-.24-1.22c.45,0,.89-.06,1.3-.06.12,0,.19,0,.2.09a.54.54,0,0,1,0,.25,2.24,2.24,0,0,0,0,.83l0,.13.35,0c1.08-.12,1.43-.19,1.5-.2s.15,0,.16.12l.1.9a8.8,8.8,0,0,0,.75-1.06,3.47,3.47,0,0,0,.44-.94A6.92,6.92,0,0,1,66,39a.29.29,0,0,1,.17.2.22.22,0,0,1-.12.18,1.49,1.49,0,0,0-.43.5,16.41,16.41,0,0,1-1.45,1.81l1.35-.15c1-.13,1.41-.19,1.48-.2s.12,0,.14.11l.09.85c0,.12,0,.14-.1.15s-.44,0-1.49.15l-2.56.29c-.44.39-.88.75-1.35,1.11L64,43.76c1-.11,1.53-.2,1.6-.21s.14,0,.16.13,0,.43.16,1.61l.14,1.19c.2,1.77.26,2.11.27,2.18s0,.12-.13.14l-1,.11c-.12,0-.13,0-.14-.1l0-.38-4,.45,0,.43c0,.12,0,.13-.11.15l-1,.11c-.12,0-.14,0-.15-.11s0-.47-.23-2.25Zm1.19-.43.1.87,4-.45-.1-.87ZM65,47.44l-.1-.91-4,.46.11.91Zm-1.37-6.79c-.07,0-.43,0-1.51.15l-.35,0L61.85,42l.67-.08a12.35,12.35,0,0,0,1.13-1.27Z"/><path class="a7989604-429f-420f-9ade-86e2ec357a86" d="M73.93,39.79c-1.42.44-2.67.84-3.91,1.24a7.35,7.35,0,0,0-.73.28.67.67,0,0,1-.25.13.27.27,0,0,1-.25-.16,8.45,8.45,0,0,1-.59-1.23,17.54,17.54,0,0,0,1.87-.42c1.44-.39,4-1.08,7.05-1.84.17,0,.24,0,.26.1a7.21,7.21,0,0,1,.25,1c0,.14,0,.18-.2.2a5.65,5.65,0,0,0-1.43.43c-1.94.93-2.8,2.44-2.63,3.87s1.37,2.24,3.46,2.13c.19,0,.26,0,.28.15a5.16,5.16,0,0,1,0,1c0,.19-.06.26-.2.28-2.1.24-4.54-.7-4.82-3.18a4.34,4.34,0,0,1,1.85-4Zm2.51,1s.1,0,.18,0A5.71,5.71,0,0,1,77.9,42a.13.13,0,0,1,0,.2l-.46.42c-.07.07-.13.07-.2,0a5.69,5.69,0,0,0-1.37-1.24Zm1-.89c.06-.06.1,0,.18,0A4.87,4.87,0,0,1,78.86,41c.06.06.08.13,0,.22l-.43.42c-.09.08-.15.06-.21,0a5.53,5.53,0,0,0-1.35-1.24Z"/><path class="a7989604-429f-420f-9ade-86e2ec357a86" d="M83.58,43.76c.12,1.1.65,1.47,1.76,1.34,1.39-.16,2.1-.78,2-1.85a2.85,2.85,0,0,0-1.32-2A3.63,3.63,0,0,0,87.21,41a.28.28,0,0,1,.25,0,3.09,3.09,0,0,1,1.27,2.12c.2,1.69-1.06,2.95-3.11,3.19s-3.11-.61-3.31-2.35c0-.25,0-.59,0-1.13a10.53,10.53,0,0,1-1.67-.17c-.08,0-.13-.07-.15-.21a6,6,0,0,1-.15-1.11,7.29,7.29,0,0,0,2,.24c0-.45,0-1.23,0-1.72a9.24,9.24,0,0,1-1.76-.14c-.15,0-.2-.07-.21-.18,0-.29-.12-.68-.17-1.1a10.68,10.68,0,0,0,2.21.2c0-.7,0-1,0-1.39a4.72,4.72,0,0,0-.13-1,7,7,0,0,1,1.47.17c.18,0,.28.14.29.25a.33.33,0,0,1-.06.23,1.15,1.15,0,0,0-.16.54c0,.28,0,.69-.06,1.14a7,7,0,0,0,1.46-.24c.08,0,.12,0,.13.13a5.57,5.57,0,0,1,.08.9c0,.13,0,.17-.17.2a12.05,12.05,0,0,1-1.58.24c0,.42,0,1.25-.06,1.73.63-.06,1.12-.13,1.68-.23.16,0,.2,0,.21.11a8.64,8.64,0,0,1,0,.9c0,.15,0,.2-.14.21a18.11,18.11,0,0,1-1.82.25A6,6,0,0,0,83.58,43.76Z"/><path class="a7989604-429f-420f-9ade-86e2ec357a86" d="M98.13,35.46c1.12-.13,1.52-.2,1.6-.21s.13,0,.14.11,0,.29,0,.61l0,.49c.12,1,.17,1.22.18,1.29s0,.13-.12.15L99,38c-.12,0-.13,0-.15-.11l-.16-1.4-7.35.85.16,1.39c0,.12,0,.13-.11.15l-1,.11c-.12,0-.13,0-.15-.12s0-.25-.12-1.3l0-.39c-.05-.42-.09-.63-.1-.7s0-.12.11-.13l1.6-.16,2.49-.29v-.14A4.4,4.4,0,0,0,94,34.65c.44,0,.89-.07,1.3-.08.13,0,.19,0,.2.08a.77.77,0,0,1,0,.25,1.87,1.87,0,0,0,0,.72v.15Zm2.06,9.32c-.06.12-.12.15-.25.09a27,27,0,0,0-3.47-1.43,10.33,10.33,0,0,1-4.7,2.34c-.36.08-.37.08-.54-.24a3,3,0,0,0-.55-.76,10.83,10.83,0,0,0,4.4-1.73c-.58-.15-1.18-.27-1.82-.37l-.25.43c-.07.11-.13.14-.3.09L92,43c-.22-.06-.21-.11-.14-.23a7.18,7.18,0,0,0,.5-.8c.23-.45.47-1,.69-1.53l-1.2.14c-1.06.12-1.41.19-1.49.19s-.13,0-.14-.11l-.11-.91c0-.12,0-.13.12-.14s.43,0,1.49-.15l1.78-.21c.07-.2.14-.41.2-.62a6.06,6.06,0,0,0,.28-1.24,12.69,12.69,0,0,1,1.31.16.19.19,0,0,1,.18.14.35.35,0,0,1-.12.23,1,1,0,0,0-.26.49l-.24.69L99,38.59c1.06-.12,1.41-.18,1.49-.19s.13,0,.14.11l.11.91c0,.12,0,.13-.12.15s-.43,0-1.49.14l-.77.09a7.83,7.83,0,0,1-1.1,2.66c1.11.32,2.22.73,3.35,1.18q.09,0,.09.09a.29.29,0,0,1,0,.18Zm-5.83-4.52c-.18.48-.4,1-.62,1.43.77.11,1.54.26,2.29.44A5.72,5.72,0,0,0,97,40Z"/><path class="a7989604-429f-420f-9ade-86e2ec357a86" d="M104,38.11c.18,0,.2,0,.2.17a14.59,14.59,0,0,1-.63,4.18c0,.11-.06.15-.24.1l-.91-.29c-.18-.07-.2-.11-.16-.21a12.79,12.79,0,0,0,.67-4c0-.14,0-.14.2-.1Zm1.21-4.52c.08-.14.1-.16.23-.13a15.57,15.57,0,0,1,3.42,1.17c.12.06.13.09.06.24l-.4.91c-.08.18-.1.2-.22.14a14.31,14.31,0,0,0-3.44-1.32c-.08,0-.1,0-.11-.06a.43.43,0,0,1,0-.15ZM106.81,42c0,.28.12.44.28.49a2.76,2.76,0,0,0,1,0c.62-.07.94-.17,1.1-.38s.29-.59.13-2a4.43,4.43,0,0,0,1,.27c.32,0,.32,0,.34.35.11,1.36,0,1.88-.39,2.26a3.35,3.35,0,0,1-2.16.75,3.92,3.92,0,0,1-2-.05c-.34-.17-.54-.44-.62-1.13L105,38a7.73,7.73,0,0,0-.23-1.35,11.14,11.14,0,0,1,1.28,0c.2,0,.27.07.28.15a.36.36,0,0,1,0,.22c0,.12-.06.27,0,.86Zm4-5.16c.15-.07.17-.09.25,0a16.58,16.58,0,0,1,2,3.47c.05.12,0,.15-.11.25l-.85.54c-.16.11-.2.11-.25,0a14.48,14.48,0,0,0-2-3.57c-.08-.1-.06-.15.09-.23Z"/><path class="a7989604-429f-420f-9ade-86e2ec357a86" d="M117.11,39.69l-1.2.14-1.15-7,1.86-.22Zm.36,1.13.19,1.61-1.7.19L115.78,41Z"/></g></g></svg>