<svg id="a6765280-04e0-47c8-b530-2748d34e9ec5" data-name="レイヤー 1" xmlns="http://www.w3.org/2000/svg" viewBox="0 0 151 67"><defs><style>.b60dffee-c50e-4c97-9f20-3f6b94cf1b25{fill:#fcee21;opacity:0.9;}.b60dffee-c50e-4c97-9f20-3f6b94cf1b25,.e90f30a6-3142-45c3-839b-7bb9f3a56115{isolation:isolate;}.bfeffa99-713c-4b73-9dea-ca701a649ce8{fill:none;stroke:#333;stroke-miterlimit:10;stroke-width:2px;}.af607e63-53c4-451b-8bf9-ee13220cf256{fill:#1a1a1a;}</style></defs><title>campain1</title><g id="a9888e64-9e35-436a-9bd1-d91f32271808" data-name="グループ 6"><path id="b46a52d7-32a9-438d-8e6c-17961a2d29f0" data-name="パス 2" class="b60dffee-c50e-4c97-9f20-3f6b94cf1b25" d="M27.59,10,1.5,11.84,7.71,56.28l18.56,1.37"/><path id="aca3490e-54a8-44b3-b833-413b518a7216" data-name="パス 3" class="bfeffa99-713c-4b73-9dea-ca701a649ce8" d="M11.77,65.17l8.87-63.5L149.5,11.2l-6.21,44.45Z"/><path id="a8e3359b-4d70-4f10-8909-3b24f70c3cff" data-name="パス 4" class="b60dffee-c50e-4c97-9f20-3f6b94cf1b25" d="M26.27,57.65l104.17,7.68,9.06-63.5L27.59,10"/></g><g id="bd504a42-011c-4c8f-bf24-fec8688aacf5" data-name="今だけ 限定 " class="e90f30a6-3142-45c3-839b-7bb9f3a56115"><g class="e90f30a6-3142-45c3-839b-7bb9f3a56115"><path class="af607e63-53c4-451b-8bf9-ee13220cf256" d="M38.63,22.84a10.18,10.18,0,0,0,5.49,3,3,3,0,0,0-.37,1.06c0,.23-.06.32-.17.33a.58.58,0,0,1-.29-.07,12.48,12.48,0,0,1-2.68-1.19l.11.92c0,.12,0,.13-.12.14s-.36,0-1.29.13l-1.65.19c-.92.1-1.2.16-1.27.17s-.15,0-.16-.12l-.11-.95a15.16,15.16,0,0,1-2.22,1.82.73.73,0,0,1-.26.15c-.08,0-.14-.07-.25-.27a2.28,2.28,0,0,0-.64-.76,10.33,10.33,0,0,0,4.18-4.15,3.34,3.34,0,0,0,.35-.89,9.72,9.72,0,0,1,1.3.11c.15,0,.22,0,.23.14a.21.21,0,0,1-.09.2ZM36.7,29.57c-1.16.13-1.55.2-1.62.21s-.13,0-.15-.13l-.1-.93c0-.12,0-.13.11-.15s.47,0,1.63-.16l4.28-.49a1.21,1.21,0,0,0,.42-.1.77.77,0,0,1,.17-.07c.12,0,.23,0,.57.28s.48.42.48.5,0,.17-.12.28a1.7,1.7,0,0,0-.33.61,26.29,26.29,0,0,1-1.92,3.74.22.22,0,0,1-.13.11,2.54,2.54,0,0,1-.63-.14c-.47-.13-.63-.17-.64-.26a.24.24,0,0,1,.06-.11,14.92,14.92,0,0,0,1.92-3.65Zm-.45-3.27,1.28-.14L39.18,26l1.24-.15a11.19,11.19,0,0,1-2.37-1.92,11.59,11.59,0,0,1-1.82,2.4Z"/><path class="af607e63-53c4-451b-8bf9-ee13220cf256" d="M50.83,23.05c.13-.05.18,0,.2.1.07.26.14.6.18.85s0,.19-.15.25c-.71.28-1.31.48-2,.69-.51,2.73-.9,4.63-1.44,6.69,0,.18-.11.17-.25.15a9.48,9.48,0,0,1-1-.33.19.19,0,0,1-.12-.23,46.64,46.64,0,0,0,1.41-5.88c-.68.15-1.51.31-2.07.37-.18,0-.23,0-.27-.16s-.19-.65-.29-1.07a5.71,5.71,0,0,0,.88-.06,17,17,0,0,0,1.92-.34c.06-.49.1-1,.12-1.53a8.25,8.25,0,0,0,0-1.1,6.93,6.93,0,0,1,1.54.16.19.19,0,0,1,.15.17.27.27,0,0,1,0,.2,2.82,2.82,0,0,0-.19.51c-.07.44-.11.85-.16,1.16A15.57,15.57,0,0,0,50.83,23.05ZM51,28.8c.12,0,.17,0,.2.15.19.86.81,1,2,.91a17.19,17.19,0,0,0,2-.4c.1,0,.13,0,.16.09a9,9,0,0,1,.21,1c0,.14,0,.18-.17.21a12.24,12.24,0,0,1-1.64.32c-1.52.18-2.36.06-3-.44A2.35,2.35,0,0,1,50,29.1,6.12,6.12,0,0,1,51,28.8Zm-.49-3.14c0-.17,0-.21.18-.26A11.88,11.88,0,0,1,53,24.85a9.68,9.68,0,0,1,1.41,0c.17,0,.21,0,.22.16a9.07,9.07,0,0,1,.13,1c0,.2,0,.26-.21.24a8.4,8.4,0,0,0-1.49,0,12.53,12.53,0,0,0-2.36.55C50.63,26.32,50.55,25.9,50.53,25.66ZM52.89,22c0-.06.1-.05.18,0a5.71,5.71,0,0,1,1.28,1.14.13.13,0,0,1,0,.2l-.46.43c-.07.07-.13.06-.2,0a6.32,6.32,0,0,0-1.36-1.24Zm1-.9c.06-.06.1-.05.18,0a5.07,5.07,0,0,1,1.27,1.1.14.14,0,0,1,0,.22l-.43.42c-.09.09-.15.06-.21,0a5.49,5.49,0,0,0-1.35-1.23Z"/><path class="af607e63-53c4-451b-8bf9-ee13220cf256" d="M60,29.62c0,.08,0,.12-.14.19a3.05,3.05,0,0,1-.79.34.22.22,0,0,1-.29-.12,10.23,10.23,0,0,1-1.13-3.62,27.25,27.25,0,0,1-.08-3.85,14.41,14.41,0,0,0-.08-1.79,5.93,5.93,0,0,1,1.3.27c.2.08.29.15.29.24a.34.34,0,0,1,0,.24,6.12,6.12,0,0,0-.12.91,22.34,22.34,0,0,0-.05,3.63,9.94,9.94,0,0,0,.34,1.86c.23-.66.39-1.09.6-1.79a3.4,3.4,0,0,0,.49.75.37.37,0,0,1,.13.22,1,1,0,0,1-.1.41A8.81,8.81,0,0,0,59.92,29a1.6,1.6,0,0,0,0,.31Zm3.5-5.87c-.63.12-1.08.19-1.42.23a10.07,10.07,0,0,1-1,.12c-.16,0-.26,0-.29-.16s-.14-.55-.26-1.07A14.71,14.71,0,0,0,62,22.76c.33,0,.89-.11,1.31-.2C63.19,22,63.13,21.43,63,21a3.78,3.78,0,0,0-.31-.95,7.18,7.18,0,0,1,1.55,0c.14,0,.2.07.22.17a.61.61,0,0,1-.06.25,1.37,1.37,0,0,0,0,.51l.15,1.32c.5-.13,1-.27,1.49-.44.14,0,.21,0,.23.08.08.3.14.58.2.89,0,.15,0,.2-.13.23-.56.17-1.08.3-1.62.43L65,25.29a6.43,6.43,0,0,1-.21,2.82,4.26,4.26,0,0,1-1.49,2.05.59.59,0,0,1-.29.14.27.27,0,0,1-.25-.08,3.59,3.59,0,0,0-1-.48,3.83,3.83,0,0,0,1.79-2.21,6.58,6.58,0,0,0,.06-2.7Z"/><path class="af607e63-53c4-451b-8bf9-ee13220cf256" d="M71.14,26.29l-1.2.14-1.15-7,1.86-.21Zm.36,1.13L71.69,29l-1.69.2-.19-1.61Z"/><path class="af607e63-53c4-451b-8bf9-ee13220cf256" d="M76.68,18.4a.5.5,0,0,0,.23-.06.21.21,0,0,1,.13-.05c.1,0,.21,0,.5.3s.36.34.37.43a.34.34,0,0,1-.1.23,1,1,0,0,0-.18.41,23.17,23.17,0,0,1-.73,2.46,3.71,3.71,0,0,1,1.32,2.48,1.61,1.61,0,0,1-1.42,2c-.38.07-.39.07-.47-.29a1.49,1.49,0,0,0-.35-.77c.74-.05,1.15-.27,1.07-1-.06-.55-.29-1-1.38-2.22a14.73,14.73,0,0,0,.77-2.82l-1.33.15.77,6.7c.19,1.61.31,2.45.31,2.52s0,.13-.11.15l-1,.11c-.12,0-.13,0-.14-.12s-.08-.88-.27-2.52l-.59-5.14c-.19-1.65-.31-2.46-.32-2.54s0-.14.12-.15l1-.1Zm3.56,8.32c.62-.24,1.22-.5,1.75-.77a4.16,4.16,0,0,0,0,.76c0,.39,0,.39-.31.53-.88.39-1.83.76-2.93,1.16a1.05,1.05,0,0,0-.36.18.31.31,0,0,1-.19.11.12.12,0,0,1-.15-.1,8.09,8.09,0,0,1-.39-1.11,8.19,8.19,0,0,0,1-.24l.39-.12-.76-6.62c-.16-1.34-.26-2-.27-2.1s0-.13.12-.14.56,0,1.54-.16l2.1-.24c.9-.1,1.31-.17,1.37-.18s.13,0,.15.11,0,.48.12,1.32l.26,2.2c.1.86.17,1.25.17,1.32s0,.13-.11.15-.48,0-1.37.13L81.8,23a7.77,7.77,0,0,0,.64,1.49,10.9,10.9,0,0,0,.89-1,3,3,0,0,0,.33-.54,9.43,9.43,0,0,1,.9.59c.08.08.11.11.12.18a.18.18,0,0,1-.13.18,1.35,1.35,0,0,0-.47.42,13.32,13.32,0,0,1-1,1,5.32,5.32,0,0,0,2.25,1.47,3.57,3.57,0,0,0-.43.92c-.08.2-.11.3-.18.31s-.14,0-.28-.1a7.12,7.12,0,0,1-3.77-4.83l-.84.1Zm-.86-7.52.11,1,2.82-.33-.11-1Zm3,1.61-2.82.32.12,1.06,2.82-.32Z"/><path class="af607e63-53c4-451b-8bf9-ee13220cf256" d="M94,17.18c1.11-.13,1.5-.2,1.57-.2s.13,0,.15.1,0,.29,0,.62l.06.51c.12,1.07.17,1.24.18,1.31s0,.13-.12.15l-1,.11c-.12,0-.13,0-.14-.12l-.17-1.44-7.54.87.17,1.44c0,.12,0,.14-.13.15l-1,.11c-.12,0-.13,0-.14-.12s0-.25-.13-1.31l0-.4c0-.44-.09-.64-.1-.73s0-.12.11-.13.47,0,1.59-.16L90,17.65v-.11a4.47,4.47,0,0,0-.22-1.12c.44-.05.88-.08,1.29-.09.1,0,.18,0,.19.1a.48.48,0,0,1,0,.23,2.49,2.49,0,0,0,0,.72v.12Zm-4.59,4c-1.16.13-1.53.2-1.61.21s-.14,0-.15-.12l-.1-.87c0-.12,0-.13.12-.15s.46,0,1.61-.16l3.36-.38,1.61-.21c.12,0,.13,0,.15.11l.1.87c0,.12,0,.14-.12.15s-.47,0-1.61.16l-1,.12L92,22.45l1.45-.17c1-.11,1.3-.17,1.37-.18s.14,0,.16.12l.1.87c0,.1,0,.12-.13.13s-.4,0-1.37.14l-1.46.16.24,2a20.33,20.33,0,0,0,2.31-.16c.68-.07,1.52-.22,2.3-.37a3.08,3.08,0,0,0-.13.88c0,.38,0,.38-.38.46s-.93.14-1.4.2c-4.27.48-5.18-.07-6.28-1.38a6.91,6.91,0,0,1-1.22,2.2c-.11.15-.17.23-.24.24s-.13-.06-.27-.2a2.42,2.42,0,0,0-.76-.54,5.7,5.7,0,0,0,1.71-4,5.06,5.06,0,0,0,0-.78c.4,0,.8.06,1.16.1.17,0,.23.06.24.14a.38.38,0,0,1-.08.24.91.91,0,0,0-.11.39,9.06,9.06,0,0,1-.11,1,3,3,0,0,0,2,1.5L90.52,21Z"/><path class="af607e63-53c4-451b-8bf9-ee13220cf256" d="M101,22.87,99.74,23,98.6,16l1.85-.21Zm.36,1.12.18,1.61-1.69.2-.19-1.61Z"/></g></g><g id="b0f7287f-472f-4dc5-802b-3a73168e4477" data-name="応援キャンペーン " class="e90f30a6-3142-45c3-839b-7bb9f3a56115"><g class="e90f30a6-3142-45c3-839b-7bb9f3a56115"><path class="af607e63-53c4-451b-8bf9-ee13220cf256" d="M34.75,45.39A23.47,23.47,0,0,1,35,49.18a8.78,8.78,0,0,1-.59,2.92c-.06.16-.1.24-.16.25s-.14-.05-.26-.17a3.9,3.9,0,0,0-.85-.58,7.35,7.35,0,0,0,.6-2.74,22.47,22.47,0,0,0-.21-3.55c-.17-1.46-.27-2.11-.28-2.18s0-.13.13-.15.47,0,1.6-.16l2.39-.27,0-.5a4.94,4.94,0,0,0-.19-1C37.53,41,38,41,38.36,41c.12,0,.2,0,.21.09a.52.52,0,0,1,0,.24,1.31,1.31,0,0,0,0,.52l.06.54,2.55-.3c1.12-.13,1.51-.2,1.58-.2s.13,0,.15.11l.1.9c0,.1,0,.12-.12.13s-.46,0-1.58.16L34.59,44Zm2.09,1.8c.16,0,.19,0,.18.17a12.45,12.45,0,0,1-.51,3.39c0,.12-.09.1-.24.06l-.86-.29c-.15-.06-.16-.12-.11-.23a9.34,9.34,0,0,0,.55-3.11c0-.13,0-.13.2-.1Zm1-3.25c.09-.13.1-.15.23-.1a13.16,13.16,0,0,1,2.43,1.22.17.17,0,0,1,.1.08.33.33,0,0,1-.07.16L40,46c-.11.15-.13.16-.22.08a12.86,12.86,0,0,0-2.4-1.33c-.09,0-.12-.06,0-.19Zm1.26,6c.05.4.07.52.24.61a1.42,1.42,0,0,0,.77,0,1.37,1.37,0,0,0,.83-.28c.2-.22.22-.64.13-1.56A3.23,3.23,0,0,0,42,49c.33,0,.33,0,.33.36,0,1.07-.14,1.52-.48,1.82a3,3,0,0,1-1.65.5,3.12,3.12,0,0,1-1.76-.1c-.26-.15-.39-.38-.46-1l-.33-2.89a13.72,13.72,0,0,0-.25-1.42c.38,0,.86,0,1.23,0,.14,0,.24,0,.25.13a.58.58,0,0,1-.06.27,3,3,0,0,0,0,1Zm4-.26c-.16.1-.18.11-.23,0a14.4,14.4,0,0,0-1.62-3c-.07-.1-.06-.14.08-.23L42,46c.13-.09.16-.09.23,0a15.11,15.11,0,0,1,1.7,3c.05.13,0,.14-.12.24Z"/><path class="af607e63-53c4-451b-8bf9-ee13220cf256" d="M47.34,47.07c.13,1.14.24,1.77.31,2.37s0,1-.24,1.22a2.21,2.21,0,0,1-1.34.42c-.37.05-.39.06-.49-.31a3.15,3.15,0,0,0-.39-.82,9.1,9.1,0,0,0,1-.08c.17,0,.24-.1.21-.37l-.27-2.37-.45.2a1.63,1.63,0,0,0-.39.25.31.31,0,0,1-.2.09c-.07,0-.12,0-.17-.12-.1-.3-.22-.7-.33-1.11a8.92,8.92,0,0,0,1.08-.35L46,46l-.27-2.31-.22,0c-.73.08-1,.13-1,.14s-.13,0-.14-.12l-.1-.87c0-.12,0-.13.11-.14s.29,0,1-.1l.21,0-.07-.63a12.87,12.87,0,0,0-.28-1.69c.43,0,.82-.05,1.22-.05.12,0,.21.06.21.11a.48.48,0,0,1-.05.26,3.37,3.37,0,0,0,.07,1.21l.07.65c.61-.07.81-.11.89-.12s.13,0,.15.11l.1.87c0,.12,0,.14-.12.15s-.29,0-.89.08l.22,1.91.88-.48a6.87,6.87,0,0,0,0,.86c0,.31,0,.33-.2.45s-.38.22-.59.33Zm6.28-1.17a.46.46,0,0,0,.25-.08l.15,0c.09,0,.21,0,.45.28s.34.32.35.41a.22.22,0,0,1-.11.19.93.93,0,0,0-.27.39,9,9,0,0,1-1,1.49,10.7,10.7,0,0,0,2.64.46,2.61,2.61,0,0,0-.28.78c-.09.37-.09.37-.46.32a9.41,9.41,0,0,1-2.68-.75,8.14,8.14,0,0,1-2.14,1.34,1.17,1.17,0,0,1-.27.1c-.11,0-.14-.07-.26-.25a2.53,2.53,0,0,0-.51-.58,7.65,7.65,0,0,0,2.21-1.16,7.3,7.3,0,0,1-1.16-1A7.57,7.57,0,0,1,48.9,50.5c-.12.12-.18.19-.24.2s-.14-.06-.25-.18a2.92,2.92,0,0,0-.64-.51,6.87,6.87,0,0,0,2.11-4.34l-1.27.17c-.12,0-.14,0-.15-.13l-.09-.77c0-.12,0-.14.12-.15s.44,0,1.46-.14c0-.21,0-.44,0-.65-1,.11-1.35.18-1.4.18s-.14,0-.15-.13l-.08-.68c0-.12,0-.13.12-.14s.45,0,1.55-.16l2.56-.29A9.9,9.9,0,0,0,53,41.41a3.75,3.75,0,0,0,.11-.67,6.4,6.4,0,0,1,1.09.17.22.22,0,0,1,.18.15.31.31,0,0,1-.09.19.61.61,0,0,0-.17.24c-.14.4-.25.72-.44,1.16.77-.09,1.08-.15,1.15-.16s.13,0,.15.11l.07.68c0,.13,0,.15-.11.16s-.47,0-1.56.16l-2.32.26a4.8,4.8,0,0,1,0,.66l2.58-.3c1.12-.13,1.51-.2,1.58-.21s.12,0,.13.12l.09.78c0,.13,0,.14-.1.15s-.47,0-1.59.16L51,45.54c0,.23-.06.45-.09.67Zm.74-6.1c.08.07.15.12.15.19s-.07.16-.23.17a4.68,4.68,0,0,0-.52.14,45.36,45.36,0,0,1-5,1.18c-.38.07-.41.09-.57-.26a2.42,2.42,0,0,0-.42-.61,26.06,26.06,0,0,0,5.06-1.07,3.22,3.22,0,0,0,.64-.3A7.37,7.37,0,0,1,54.36,39.8Zm-5.09,1.7c.15-.08.17-.07.25,0a5.8,5.8,0,0,1,.67.94c.06.11.05.14-.1.21l-.62.35c-.15.08-.19.08-.25,0a4.11,4.11,0,0,0-.62-1c-.09-.1-.08-.11.06-.19Zm2.22,1.2c-.15.1-.18.1-.24,0a6.45,6.45,0,0,0-.65-1.08c-.05-.08,0-.12.15-.2l.51-.27c.16-.09.2-.07.27,0a5.26,5.26,0,0,1,.67,1c0,.11,0,.14-.09.22Zm-.38,4.35a5.27,5.27,0,0,0,1.33,1,5.24,5.24,0,0,0,.85-1.29Z"/><path class="af607e63-53c4-451b-8bf9-ee13220cf256" d="M59.61,40.7A6,6,0,0,0,59,39.26a11.55,11.55,0,0,1,1.55-.21c.16,0,.24,0,.26.15a2.6,2.6,0,0,0,.12.86l.29,1,1-.28c.67-.2,1.48-.44,2.09-.68a.16.16,0,0,1,.14.12,8.67,8.67,0,0,1,.36,1c0,.08,0,.12-.17.15-.53.16-1.36.38-2,.56l-1,.31.47,1.49,1.69-.49c.83-.24,1.4-.44,1.83-.61.15-.06.19,0,.22.1a8,8,0,0,1,.31.94.2.2,0,0,1-.16.22l-1.88.53-1.61.47.42,1.29c.26.78.55,1.52.78,2.1,0,.06,0,.1-.14.15a7.68,7.68,0,0,1-1.06.37c-.15,0-.23,0-.25-.11-.14-.43-.36-1.25-.62-2l-.46-1.38-1.59.48c-.79.23-1.44.45-1.88.62-.13.07-.22,0-.29-.1-.16-.33-.33-.77-.47-1.14.72-.17,1.34-.33,2.18-.57l1.64-.47-.48-1.5-1.1.3c-.64.19-1.42.45-1.73.57-.12,0-.18,0-.24-.1a9.48,9.48,0,0,1-.47-1.15c.64-.12,1.28-.28,2.09-.51l1.07-.29Z"/><path class="af607e63-53c4-451b-8bf9-ee13220cf256" d="M69.62,43.88a9.14,9.14,0,0,0-1.26.62,1,1,0,0,1-.21.08c-.08,0-.15,0-.22-.14a7.71,7.71,0,0,1-.54-1,14.8,14.8,0,0,0,1.77-.6l.69-.28-.37-1a5,5,0,0,0-.63-1.15c.48-.11,1.07-.25,1.38-.29s.28,0,.27.21a2.1,2.1,0,0,0,.17.85l.33.87,2.51-.95a1.41,1.41,0,0,0,.57-.33.17.17,0,0,1,.13-.09.37.37,0,0,1,.22.08,6.13,6.13,0,0,1,.77.52.27.27,0,0,1,.12.17.33.33,0,0,1-.11.25,1,1,0,0,0-.16.27A13.68,13.68,0,0,1,74,44.4c0,.07-.09.12-.16.12a.37.37,0,0,1-.19,0,3.06,3.06,0,0,0-1-.25,9.11,9.11,0,0,0,1-2l-2.23.87.8,2.09c.28.73.52,1.3.77,1.94.07.18,0,.27-.11.34a4,4,0,0,1-.76.33c-.15,0-.25,0-.32-.14-.22-.65-.46-1.29-.71-1.94l-.81-2.14Z"/><path class="af607e63-53c4-451b-8bf9-ee13220cf256" d="M77.43,38.17a.24.24,0,0,1,.15-.12.41.41,0,0,1,.17,0,13.59,13.59,0,0,1,2.47,1.43c.08.07.12.11.12.16a.22.22,0,0,1,0,.16c-.15.26-.49.78-.64,1s-.08.11-.13.11-.1,0-.16-.08a13.15,13.15,0,0,0-2.66-1.66C76.93,38.84,77.23,38.43,77.43,38.17Zm1.76,6.16a18.15,18.15,0,0,0,3.17-2.61,18.5,18.5,0,0,0,2.9-3.62,5.44,5.44,0,0,0,.49,1.36.48.48,0,0,1,.09.21.62.62,0,0,1-.15.38,20,20,0,0,1-2.45,2.85,26.21,26.21,0,0,1-3.33,2.74,4.82,4.82,0,0,0-.74.64.34.34,0,0,1-.2.15.33.33,0,0,1-.22-.11,8.88,8.88,0,0,1-1.1-1.21A7.7,7.7,0,0,0,79.19,44.33Z"/><path class="af607e63-53c4-451b-8bf9-ee13220cf256" d="M88.42,40.56c.51-.66,1-1.34,1.52-2s.63-.71,1-.75a1.39,1.39,0,0,1,1.09.37,38.38,38.38,0,0,0,5.79,3.26.21.21,0,0,1,.14.31,7.3,7.3,0,0,1-.5,1.1.29.29,0,0,1-.17.16.24.24,0,0,1-.13,0,53,53,0,0,1-5.76-3.55.29.29,0,0,0-.2-.06.25.25,0,0,0-.18.12c-.51.67-1,1.38-1.69,2.38a4.16,4.16,0,0,0-.41.66c0,.1-.11.17-.19.18a.24.24,0,0,1-.18-.07,11.75,11.75,0,0,1-1.23-.92A5.52,5.52,0,0,0,88.42,40.56Zm8.11-3.72a1.3,1.3,0,1,1-1.44-1.13A1.29,1.29,0,0,1,96.53,36.84Zm-2,.23a.7.7,0,0,0,1.4-.16.7.7,0,1,0-1.4.16Z"/><path class="af607e63-53c4-451b-8bf9-ee13220cf256" d="M101.39,40.14a9,9,0,0,0-1.73.35.28.28,0,0,1-.31-.22A14.5,14.5,0,0,1,99,38.85a16.28,16.28,0,0,0,2.59-.15l3.84-.45c.9-.1,1.82-.23,2.73-.35.18,0,.22,0,.24.15a8.34,8.34,0,0,1,.12,1.12c0,.14,0,.19-.19.2l-2.66.28Z"/><path class="af607e63-53c4-451b-8bf9-ee13220cf256" d="M110.45,34.37a.19.19,0,0,1,.16-.11.25.25,0,0,1,.16,0,12.23,12.23,0,0,1,2.47,1.43.32.32,0,0,1,.13.15.35.35,0,0,1-.06.17c-.15.25-.49.78-.63,1s-.09.11-.14.12a.3.3,0,0,1-.16-.08,12.32,12.32,0,0,0-2.66-1.66C110,35,110.25,34.63,110.45,34.37Zm1.76,6.16a18.23,18.23,0,0,0,3.18-2.61,18.14,18.14,0,0,0,2.89-3.62,5.44,5.44,0,0,0,.49,1.36.57.57,0,0,1,.09.22.62.62,0,0,1-.15.38,19.86,19.86,0,0,1-2.45,2.84,25.47,25.47,0,0,1-3.33,2.75,4.28,4.28,0,0,0-.74.64.3.3,0,0,1-.2.14c-.06,0-.13,0-.21-.11a7.82,7.82,0,0,1-1.11-1.21A7.44,7.44,0,0,0,112.21,40.53Z"/><path class="af607e63-53c4-451b-8bf9-ee13220cf256" d="M122.68,38.83l-1.2.14-1-6.63,1.85-.21Zm.55,2.56-1.69.19L121.35,40l1.69-.19Z"/></g></g></svg>