<svg id="af627d07-18c5-4ae4-9d22-d3cf51b251df" data-name="レイヤー 1" xmlns="http://www.w3.org/2000/svg" viewBox="0 0 1180 94"><defs><style>.ae8177fc-46f8-40b2-af45-499cb744d598{fill:#f7931e;}</style></defs><path class="ae8177fc-46f8-40b2-af45-499cb744d598" d="M31.52,73.45H13.1v8.74H.51V7.76h31ZM13.1,19.89V34.08h5.73V19.89Zm5.73,41.44V45.92H13.1V61.33Zm59.3-19.92v6.48h8V59.73h-8V77.59c0,6.2-1.13,9.58-5.26,11.56s-9.4,2.25-16.16,2.25a46.58,46.58,0,0,0-4.23-12.78c3.94.19,9,.19,10.43.19s1.88-.28,1.88-1.5V59.73H33.21V47.89H64.79V41.41H33.21V29.47H53.13v-6.2H35.84V11.52H53.13V2.12H66.57v9.4h18V23.27h-18v6.2h20V41.41ZM46,81.44c-1.6-4.32-6.11-10.81-10.15-15.5l10.9-6.21c4.14,4.42,9,10.43,11,14.94Z"/><path class="ae8177fc-46f8-40b2-af45-499cb744d598" d="M127.48,7.2a145.43,145.43,0,0,1-8.09,16.26V91.31H105.2V44.23A107.48,107.48,0,0,1,97,53a98.33,98.33,0,0,0-7.52-14.1c9.77-8.46,19.36-22.18,24.9-36Zm26.31,35.33c2.26,18.71,6.49,31,12.69,32.05,1.88.19,2.82-4.23,3.38-14.28,2.63,2.91,8.74,6.58,11.18,7.89-2.63,19.36-8.45,23.4-13.9,23-16.26-1.7-23.59-18.33-27-46.71L124,46.76l-2-13.15,16.91-2.35c-.66-8.37-1-17.58-1.31-27.54h13.91c.09,9.12.37,17.76.94,25.66l26.12-3.57,1.88,13ZM168.17,24.4C166.2,20,161,13.31,156.61,8.51L167,2.22c4.51,4.41,10,10.71,12.31,15.22Z"/><path class="ae8177fc-46f8-40b2-af45-499cb744d598" d="M193.55,18c.38-2.92.94-7.15,1-10.62l15.6,1.31a89.18,89.18,0,0,0-2.63,9.59C206.33,23.74,203,46.2,203,55.41a20.71,20.71,0,0,0,.19,3.38c1.13-3,2.44-5.26,3.76-8.27l6.95,5.55C211,64.62,208,74.49,206.8,80a28.4,28.4,0,0,0-.56,4.51c0,1.13,0,2.82.09,4.42l-12.69.94c-2.06-6.67-3.94-18-3.94-31.3C189.7,43.66,192.42,25.24,193.55,18Zm44.36,37.21c1.78,0,3.66.1,5.35.19-.28-5.36-.65-11.65-.75-17.95-2,.09-3.94.09-5.92.09-5.73,0-11.56-.18-17.29-.65l-.09-13.44a151.57,151.57,0,0,0,17.29.94c2.07,0,3.95,0,5.92-.1-.19-8.64.28-10.24-.94-16.82h16.16c-.94,5.55-.75,8.55-.94,15.88,5.08-.56,10-1.31,14.48-2.25V35.2c-4.42.57-9.4,1.13-14.57,1.6.19,9,.66,16.26,1,22.18a62.16,62.16,0,0,1,18.8,12.69l-7.61,11.84a99,99,0,0,0-10.91-9.12c-1,9.12-6.86,15.13-19.82,15.13-13.63,0-22.56-5.82-22.56-16.72C215.54,62.18,224.38,55.22,237.91,55.22Zm-1.22,21c5.63,0,7-3.1,7-9.12a29,29,0,0,0-6.95-.94c-4.79,0-8.08,1.88-8.08,5.17C228.7,74.86,232.27,76.18,236.69,76.18Z"/><path class="ae8177fc-46f8-40b2-af45-499cb744d598" d="M330.2,1.37C340.35,16.22,355.1,28.72,370,35.2a63.66,63.66,0,0,0-9,12A130,130,0,0,1,343.54,35V43.1H304.17V35.3a131.44,131.44,0,0,1-16.73,11.84,54.74,54.74,0,0,0-8.65-10.9c15.79-8.46,30.74-23.4,37.5-34.87Zm15.69,48.49,11,3.11c-4.7,12.21-11.28,26.69-17,38.81l-14.66-4c3.85-7.61,8.18-16.73,11.56-24.53h-46V50.43h52.72ZM338.28,30.5a103.61,103.61,0,0,1-14.47-15.69,99.82,99.82,0,0,1-14.1,15.69Z"/><path class="ae8177fc-46f8-40b2-af45-499cb744d598" d="M394.68,8.23l5.54,36.28c.66,4.41,2.63,19.92,3.29,24.43H404c1.5-8.17,3.1-16.44,4.7-24.43L417,8.23h14.19l8.56,36.28c1.59,7.89,3,16.16,4.6,24.43H445c1-8.27,2.17-16.44,3.2-24.43L453.6,8.23h16L455.76,84.92h-21L427,49c-1.22-5.92-2.34-11.94-3.19-17.76h-.47c-1,5.82-1.88,11.84-3.1,17.76l-7.61,35.9H392L377.57,8.23Z"/><path class="ae8177fc-46f8-40b2-af45-499cb744d598" d="M480.48,8.23h47.74V22.14h-31V38.31h26.32v14H497.21V70.92h32.14v14H480.48Z"/><path class="ae8177fc-46f8-40b2-af45-499cb744d598" d="M544.67,8.23h26c15.79,0,28.1,4.42,28.1,18.89,0,7-3.86,14.29-10.25,16.64v.47c8.09,2,14,7.7,14,18,0,15.51-13.07,22.65-29.89,22.65h-28Zm25,30.83c8.84,0,12.88-3.67,12.88-9.4,0-6.2-4.14-8.65-12.69-8.65H561.4V39.06Zm1.7,33c9.77,0,14.94-3.47,14.94-10.8,0-7-5.08-9.78-14.94-9.78h-10V72Z"/><path class="ae8177fc-46f8-40b2-af45-499cb744d598" d="M621.37,15.75c8.83-.75,24-2,41.91-3.57,9.87-.75,21.14-1.41,28.19-1.69l.1,14.56c-5.08,0-13.44.1-18.8,1.13-10.9,2.63-19.92,14.38-19.92,25.94,0,14.85,14,20.58,30.73,21.43l-5.26,15.69C656.89,87.74,638,76.08,638,55.13a39.28,39.28,0,0,1,13-28.95c-8.46.94-26.5,2.92-38.16,5.45L611.4,16.31C615.35,16.22,619.49,16,621.37,15.75Zm56.57,17.76a130.42,130.42,0,0,1,7.71,13.35l-8.37,3.66A76.55,76.55,0,0,0,669.67,37ZM689,28.91c2.54,3.47,6.2,9.21,8.27,12.87l-8.36,3.95a87.57,87.57,0,0,0-8-13.16Z"/><path class="ae8177fc-46f8-40b2-af45-499cb744d598" d="M789.22,46.58c-3.58,3.1-7.15,6.48-10.25,9.21,2.73,8,6.11,15,10.25,20.11A43.82,43.82,0,0,0,780,85.76C771.74,74.3,766.75,56,763.56,36.9H761.4A72.85,72.85,0,0,1,756,42.06c16.44,14.95,15.22,38.35,7.61,45-3,3.2-6.11,4.14-10.62,4.23-2,.09-4.14,0-6.3-.09A28.14,28.14,0,0,0,744,80.41,85.25,85.25,0,0,1,731.51,87a43.78,43.78,0,0,0-6.2-9.68c10.62-3.29,22.37-10.43,29.42-18a15.79,15.79,0,0,0-.94-2.16,120.34,120.34,0,0,1-19.83,12,37.29,37.29,0,0,0-6.21-8.74,85.65,85.65,0,0,0,21-10.8c-.47-.47-.94-1-1.41-1.51a90.18,90.18,0,0,1-10.71,5.64,59.28,59.28,0,0,0-6.76-8.93,72.32,72.32,0,0,0,16.44-8h-10V28.62H732V14.06a75.63,75.63,0,0,1-8.55,2.63V29.1h8.36V41.41h-8.17c2.72,2.35,8.64,8.27,10,9.86l-7.05,9.87c-.75-1.69-1.88-3.85-3.1-6V91.5H710.55V63.3a73,73,0,0,1-7,14.38,72.17,72.17,0,0,0-6-13.15c4.23-5.83,8.27-15,10.9-23.12h-9.21V29.1h11.37V19.51c-3,.56-5.92.94-8.73,1.32A45.1,45.1,0,0,0,698.15,11c9.59-1.6,19.92-4.33,26.5-7.33l8.55,8.83h20.12V2.31h13.25V12.46h20.67V28.62H783V36.9h-9c.56,2.72,1.13,5.35,1.79,8a72.32,72.32,0,0,0,4.51-6.1ZM744,22.61v3.95h30.54V22.61ZM754.82,78c1.13-1.22,1.88-3.75,2-7a96,96,0,0,1-11.93,8.92,41.1,41.1,0,0,0,5.64.38C752.38,80.22,753.79,79.84,754.82,78Z"/><path class="ae8177fc-46f8-40b2-af45-499cb744d598" d="M804.92,35.2c7.8-6.29,20.48-16.82,27.16-23.21,3.1-3,6.57-6.39,8.27-8.93L853.5,14.72c-3.47,2.53-6.76,5.17-9.4,7.14-6.1,4.7-18.51,14.28-24.81,19.64-2.35,2.16-3.57,3.38-3.57,4.7s1.22,2.63,3.76,4.79c6.67,5.74,25.75,20.68,35.53,30L841.85,93.09c-3-3.38-6.3-6.67-9.31-9.86C827.09,77.68,812.9,65.37,804,57.85c-4.8-4.13-7.05-7.52-7.05-11C796.93,43.19,799.56,39.53,804.92,35.2ZM847,27.5c2.63,3.66,6.39,11.18,8.17,14.66l-9.21,4c-2.06-4.14-5.26-11.09-8-15Zm12-4.89c2.63,3.85,6.39,11.28,8.27,14.76l-9.12,3.85c-2.16-4.14-5.54-10.9-8.27-14.76Z"/><path class="ae8177fc-46f8-40b2-af45-499cb744d598" d="M902.75,73.45H884.33v8.74H871.74V7.76h31ZM884.33,19.89V34.08h5.73V19.89Zm5.73,41.44V45.92h-5.73V61.33Zm59.31-19.92v6.48h8V59.73h-8V77.59c0,6.2-1.13,9.58-5.27,11.56s-9.4,2.25-16.16,2.25a46.58,46.58,0,0,0-4.23-12.78c3.95.19,9,.19,10.43.19s1.88-.28,1.88-1.5V59.73H904.44V47.89H936V41.41H904.44V29.47h19.93v-6.2h-17.3V11.52h17.3V2.12h13.44v9.4h18V23.27h-18v6.2h20V41.41Zm-32.15,40c-1.59-4.32-6.1-10.81-10.15-15.5L918,59.73c4.13,4.42,9,10.43,11,14.94Z"/><path class="ae8177fc-46f8-40b2-af45-499cb744d598" d="M998.71,7.2a147.06,147.06,0,0,1-8.08,16.26V91.31H976.44V44.23A107.53,107.53,0,0,1,968.26,53a98.33,98.33,0,0,0-7.52-14.1c9.78-8.46,19.36-22.18,24.91-36ZM1025,42.53c2.26,18.71,6.49,31,12.69,32.05,1.88.19,2.82-4.23,3.38-14.28,2.64,2.91,8.74,6.58,11.19,7.89-2.63,19.36-8.46,23.4-13.91,23-16.26-1.7-23.59-18.33-27-46.71l-16.17,2.25-2-13.15,16.91-2.35c-.65-8.37-1-17.58-1.31-27.54h13.91c.09,9.12.37,17.76.94,25.66l26.12-3.57,1.88,13ZM1039.4,24.4c-2-4.42-7.14-11.09-11.56-15.89l10.34-6.29c4.51,4.41,10,10.71,12.31,15.22Z"/><path class="ae8177fc-46f8-40b2-af45-499cb744d598" d="M1064.22,46.29c4.23-4.51,11.56-14.09,17.76-21.14,3.85-4.51,7.71-6.67,11.47-6.67,3.28,0,6.67,1.69,10,4.88,7,6.77,14.85,17,20.39,23,6.4,7,14.2,15.13,23.69,23.77L1135.92,83.6a282.59,282.59,0,0,1-21-22.83c-5.92-7.15-13.16-16.45-17.76-21.62-1.51-1.6-2.73-2.44-3.76-2.44-1.32,0-2.45,1-3.86,2.72-3.57,4.61-10,13.82-13.91,19.17-2.35,3.39-4.6,7.15-6.48,10l-13.72-14.19A85.91,85.91,0,0,0,1064.22,46.29Z"/><path class="ae8177fc-46f8-40b2-af45-499cb744d598" d="M1169.48,67a10.63,10.63,0,0,1,0,21.24c-5.83,0-10.06-4.7-10.06-10.62S1163.65,67,1169.48,67Zm8.46-59-.57,15.22-2.44,36.66h-10.81l-2.35-36.66L1161.21,8Z"/></svg>