<svg id="f078d9ec-516e-4af7-b5dc-35ed63c6e8a6" data-name="レイヤー 1" xmlns="http://www.w3.org/2000/svg" viewBox="0 0 756 209"><defs><style>.ac9de24f-5b5a-49d5-8517-fdd68178ab9a{fill:#f9fc49;}</style></defs><path class="ac9de24f-5b5a-49d5-8517-fdd68178ab9a" d="M37.5,79.05H17.63v9.43H4l0-80.28,33.45,0ZM23.82,66V49.34H17.65V66ZM17.66,21.26V36.57h6.18V21.27ZM87.79,44.51v7h8.62V64.28H87.78V83.53c0,6.69-1.22,10.34-5.68,12.47S72,98.43,64.66,98.42A50.36,50.36,0,0,0,60.1,84.64c4.26.2,9.73.2,11.25.2s2-.3,2-1.62v-19l-34.06,0V51.48l34.06,0v-7H39.34V31.61H60.84V24.93H42.19V12.25H60.84V2.13H75.34V12.27H94.7V25H75.33v6.69H96.92V44.51ZM53.1,87.67C51.38,83,46.52,76,42.17,70.94l11.76-6.68C58.38,69,63.65,75.52,65.78,80.38Z"/><path class="ac9de24f-5b5a-49d5-8517-fdd68178ab9a" d="M141,7.64a157.8,157.8,0,0,1-8.72,17.53l0,73.18H117l0-50.79A114.57,114.57,0,0,1,108.16,57a105.32,105.32,0,0,0-8.11-15.21C110.6,32.66,121,17.87,126.93,3Zm28.36,38.12c2.43,20.18,7,33.46,13.67,34.58,2,.2,3-4.56,3.66-15.41,2.84,3.14,9.42,7.1,12.06,8.52-2.85,20.88-9.14,25.24-15,24.83-17.53-1.84-25.43-19.78-29.06-50.39l-17.44,2.42-2.12-14.19,18.25-2.53c-.71-9-1.11-19-1.41-29.7h15c.1,9.83.4,19.16,1,27.67l28.18-3.84,2,14ZM184.9,26.21c-2.12-4.77-7.69-12-12.46-17.14L183.6,2.29c4.86,4.76,10.73,11.56,13.27,16.42Z"/><path class="ac9de24f-5b5a-49d5-8517-fdd68178ab9a" d="M212.27,19.33c.41-3.14,1-7.7,1.12-11.45L230.22,9.3a93.08,93.08,0,0,0-2.85,10.34c-1.32,5.88-4.88,30.1-4.88,40a23,23,0,0,0,.2,3.65c1.22-3.25,2.64-5.68,4.06-8.92l7.5,6c-3.15,9.22-6.4,19.87-7.72,25.85a30.69,30.69,0,0,0-.61,4.86c0,1.22,0,3,.1,4.77l-13.69,1c-2.22-7.2-4.24-19.46-4.24-33.75C208.1,47,211.05,27.13,212.27,19.33Zm47.82,40.16c1.93,0,4,.11,5.78.21-.3-5.78-.7-12.57-.8-19.36-2.13.1-4.26.1-6.39.1-6.18,0-12.46-.21-18.65-.72l-.09-14.5a161.55,161.55,0,0,0,18.65,1c2.23,0,4.26,0,6.39-.09-.2-9.33.31-11-1-18.15h17.44c-1,6-.82,9.22-1,17.13,5.48-.61,10.75-1.41,15.62-2.43V37.92c-4.77.6-10.14,1.21-15.71,1.71.19,9.74.7,17.54,1.1,23.93a67,67,0,0,1,20.26,13.69L293.43,90a106.21,106.21,0,0,0-11.75-9.84c-1.12,9.83-7.41,16.32-21.4,16.31-14.7,0-24.32-6.3-24.32-18C236,67,245.5,59.48,260.09,59.49ZM258.77,82.1c6.08,0,7.6-3.35,7.6-9.83a31,31,0,0,0-7.5-1c-5.17,0-8.72,2-8.72,5.57C250.15,80.67,254,82.09,258.77,82.1Z"/><path class="ac9de24f-5b5a-49d5-8517-fdd68178ab9a" d="M359.66,1.46C370.6,17.48,386.5,31,402.52,38c-3.76,3.65-7,8.51-9.74,13A140.09,140.09,0,0,1,374,37.75v8.72l-42.47,0V38A141.49,141.49,0,0,1,313.51,50.8,59.18,59.18,0,0,0,304.19,39c17-9.12,33.16-25.23,40.47-37.59Zm16.9,52.31,11.86,3.35C383.34,70.3,376.24,85.9,370.05,99l-15.81-4.27c4.16-8.21,8.83-18,12.48-26.45l-49.57,0V54.35l56.87,0Zm-8.2-20.89A111.43,111.43,0,0,1,352.76,16a108.52,108.52,0,0,1-15.22,16.92Z"/><path class="ac9de24f-5b5a-49d5-8517-fdd68178ab9a" d="M429.18,8.89l6,39.13c.7,4.76,2.82,21.49,3.53,26.36h.51c1.62-8.82,3.35-17.74,5.08-26.36l9-39.12h15.31L477.82,48c1.72,8.52,3.24,17.44,5,26.36h.6c1.12-8.92,2.34-17.74,3.46-26.36l5.9-39.12H510L495,91.64l-22.6,0L464,52.9c-1.31-6.39-2.52-12.88-3.43-19.16h-.51c-1.12,6.28-2,12.77-3.36,19.16l-8.22,38.71h-22.2L410.74,8.88Z"/><path class="ac9de24f-5b5a-49d5-8517-fdd68178ab9a" d="M521.72,8.93l51.5,0V24H539.76V41.38h28.38V56.5l-28.39,0V76.55l34.66,0v15.1l-52.71,0Z"/><path class="ac9de24f-5b5a-49d5-8517-fdd68178ab9a" d="M591,9H619c17,0,30.31,4.78,30.3,20.39,0,7.5-4.16,15.41-11.06,17.94v.5c8.72,2.14,15.1,8.32,15.1,19.47,0,16.73-14.11,24.42-32.25,24.42l-30.21,0Zm28.76,68.84c10.54,0,16.12-3.74,16.12-11.65,0-7.5-5.47-10.55-16.11-10.55H609V77.8ZM617.9,42.23c9.53,0,13.89-3.95,13.89-10.13,0-6.69-4.45-9.33-13.68-9.33H609V42.22Z"/><path class="ac9de24f-5b5a-49d5-8517-fdd68178ab9a" d="M673.66,17.12c9.53-.81,26-2.12,45.21-3.83,10.64-.81,22.8-1.51,30.41-1.81l.09,15.71c-5.47,0-14.49.09-20.27,1.21-11.76,2.83-21.5,15.49-21.5,28,0,16,15.09,22.21,33.13,23.13l-5.68,16.92c-23.11-1.63-43.48-14.21-43.47-36.81a42.38,42.38,0,0,1,14-31.22c-9.12,1-28.58,3.13-41.16,5.86l-1.51-16.52C667.17,17.62,671.63,17.42,673.66,17.12Zm61,19.18A139.61,139.61,0,0,1,743,50.7l-9,3.95a83.24,83.24,0,0,0-8.2-14.6Zm12-5c2.74,3.75,6.69,9.94,8.92,13.89l-9,4.26a93.55,93.55,0,0,0-8.61-14.2Z"/><path class="ac9de24f-5b5a-49d5-8517-fdd68178ab9a" d="M98.48,159c-3.85,3.35-7.7,7-11,9.93,2.93,8.62,6.58,16.22,11,21.7a47.23,47.23,0,0,0-9.94,10.64c-8.92-12.37-14.28-32.14-17.72-52.72H68.48a76.55,76.55,0,0,1-5.88,5.57c17.73,16.13,16.4,41.37,8.19,48.56-3.25,3.44-6.59,4.46-11.46,4.55-2.13.1-4.46,0-6.79-.1-.2-3.24-.91-8-2.83-11.66a90.49,90.49,0,0,1-13.49,7.09,47.6,47.6,0,0,0-6.68-10.44c11.45-3.55,24.13-11.24,31.73-19.35a15.3,15.3,0,0,0-1-2.33,129.85,129.85,0,0,1-21.39,13A40.24,40.24,0,0,0,32.18,174a92.65,92.65,0,0,0,22.71-11.64c-.5-.51-1-1.12-1.52-1.62a98.34,98.34,0,0,1-11.55,6.07,63.64,63.64,0,0,0-7.3-9.63,77.5,77.5,0,0,0,17.74-8.61H41.52v-8.92H36.76V123.9a80.28,80.28,0,0,1-9.23,2.84v13.38h9V153.4H27.73c2.94,2.54,9.32,8.93,10.74,10.65l-7.61,10.64c-.81-1.82-2-4.15-3.34-6.49l0,39.23H13.62V177A78.83,78.83,0,0,1,6,192.51c-1.21-4.26-4.35-10.44-6.48-14.19C4.11,172,8.47,162.2,11.31,153.39H1.38V140.1H13.65V129.77c-3.24.61-6.38,1-9.42,1.41A48.7,48.7,0,0,0,.28,120.54c10.34-1.72,21.49-4.65,28.59-7.89l9.22,9.53H59.78v-11h14.3v11h22.3v17.43H91.8v8.92H82.07c.6,2.94,1.21,5.77,1.92,8.61a80.56,80.56,0,0,0,4.87-6.58ZM49.74,133.13v4.26l32.94,0v-4.26Zm11.63,59.71c1.21-1.32,2-4.05,2.13-7.6a102.52,102.52,0,0,1-12.88,9.62,44.87,44.87,0,0,0,6.08.41C58.73,195.27,60.25,194.87,61.37,192.84Z"/><path class="ac9de24f-5b5a-49d5-8517-fdd68178ab9a" d="M115.41,146.75c8.42-6.79,22.11-18.14,29.31-25,3.34-3.24,7.1-6.89,8.92-9.62l14.19,12.57c-3.75,2.74-7.3,5.58-10.14,7.7-6.59,5.07-20,15.4-26.77,21.18-2.54,2.33-3.86,3.64-3.86,5.06s1.32,2.84,4.05,5.17c7.2,6.19,27.77,22.32,38.3,32.36l-14.19,13.07c-3.25-3.65-6.79-7.2-10-10.65-5.88-6-21.18-19.27-30.8-27.39-5.17-4.46-7.6-8.11-7.6-11.86C106.79,155.36,109.63,151.41,115.41,146.75Zm45.42-8.29c2.83,3.95,6.88,12.06,8.81,15.81l-9.94,4.26c-2.23-4.47-5.67-12-8.61-16.23Zm13-5.27c2.84,4.16,6.89,12.17,8.92,15.92l-9.84,4.15c-2.33-4.46-6-11.76-8.91-15.92Z"/><path class="ac9de24f-5b5a-49d5-8517-fdd68178ab9a" d="M220.91,188.05H201v9.43H187.45l0-80.28,33.45,0ZM207.23,175V158.35h-6.19V175Zm-6.16-44.7v15.3h6.18v-15.3Zm70.13,23.24v7h8.61v12.77h-8.62v19.26c0,6.69-1.22,10.34-5.68,12.46s-10.14,2.43-17.44,2.43a50,50,0,0,0-4.55-13.79c4.26.2,9.73.21,11.25.21s2-.31,2-1.62v-19l-34.06,0V160.48l34.06,0v-7H222.75V140.62h21.49v-6.69H225.59V121.26h18.65V111.13h14.49v10.13h19.36V134H258.74v6.69h21.59v12.88Zm-34.69,43.17C234.79,192,229.93,185,225.57,180l11.76-6.69c4.46,4.77,9.73,11.26,11.86,16.12Z"/><path class="ac9de24f-5b5a-49d5-8517-fdd68178ab9a" d="M324.43,116.64a156.2,156.2,0,0,1-8.73,17.53l0,73.19H300.36l0-50.78a116.06,116.06,0,0,1-8.83,9.42,105.23,105.23,0,0,0-8.1-15.21c10.55-9.12,20.89-23.91,26.88-38.81Zm28.36,38.13c2.43,20.17,7,33.45,13.67,34.57,2,.2,3-4.56,3.66-15.41,2.83,3.15,9.42,7.1,12.06,8.52-2.85,20.88-9.14,25.24-15,24.83-17.53-1.83-25.43-19.78-29.07-50.39l-17.43,2.42-2.12-14.19,18.24-2.52c-.7-9-1.1-19-1.4-29.7h15c.1,9.83.4,19.16,1,27.68l28.18-3.84,2,14Zm15.52-19.56c-2.13-4.76-7.7-12-12.46-17.14L367,111.29c4.87,4.76,10.74,11.56,13.28,16.43Z"/><path class="ac9de24f-5b5a-49d5-8517-fdd68178ab9a" d="M395.05,158.84c4.57-4.86,12.48-15.2,19.17-22.8,4.16-4.86,8.32-7.19,12.37-7.19,3.55,0,7.2,1.83,10.85,5.28,7.49,7.3,16,18.35,22,24.84,6.89,7.51,15.3,16.33,25.53,25.66l-12.57,14.49a306.13,306.13,0,0,1-22.6-24.64c-6.38-7.71-14.18-17.75-19.14-23.33-1.62-1.72-2.94-2.63-4.06-2.63-1.41,0-2.63,1.11-4.15,2.93-3.86,5-10.86,14.9-15,20.68-2.54,3.64-5,7.7-7,10.74l-14.8-15.32A90.2,90.2,0,0,0,395.05,158.84Z"/><path class="ac9de24f-5b5a-49d5-8517-fdd68178ab9a" d="M508.57,181.2c6.28,0,11,5.07,11,11.46a11.1,11.1,0,0,1-11.06,11.44c-6.28,0-10.84-5.07-10.84-11.45S502.28,181.19,508.57,181.2Zm9.15-63.66L517.1,134l-2.65,39.53H502.79L500.28,134l-.6-16.42Z"/></svg>