<svg id="e023de3b-db74-49c3-a5c5-a195ee585f3d" data-name="レイヤー 1" xmlns="http://www.w3.org/2000/svg" viewBox="0 0 570 182"><defs><style>.b4a9ec83-94d2-4926-8323-9577eb9837ea{fill:#f7931e;}</style></defs><path class="b4a9ec83-94d2-4926-8323-9577eb9837ea" d="M34.51,68.27H17.26v8.19H5.47V6.76h29ZM17.26,18.11V31.4h5.37V18.11Zm5.37,38.81V42.49H17.26V56.92ZM78.15,38.26v6.08h7.48V55.42H78.15V72.14c0,5.81-1.05,9-4.92,10.83s-8.8,2.11-15.14,2.11a43.61,43.61,0,0,0-4-12c3.7.18,8.45.18,9.77.18s1.76-.27,1.76-1.41V55.42H36.09V44.34H65.66V38.26H36.09V27.09H54.75V21.28H38.55v-11h16.2V1.48H67.33v8.8H84.14v11H67.33v5.81H86.07V38.26ZM48.06,75.75c-1.5-4-5.72-10.12-9.51-14.52l10.21-5.81c3.87,4.14,8.45,9.77,10.3,14Z"/><path class="b4a9ec83-94d2-4926-8323-9577eb9837ea" d="M124.36,6.23a138.14,138.14,0,0,1-7.57,15.23V85H103.5V40.9a97.29,97.29,0,0,1-7.66,8.19,91.79,91.79,0,0,0-7-13.2C98,28,106.93,15.12,112.12,2.19ZM149,39.32c2.12,17.51,6.08,29,11.89,30,1.75.17,2.63-4,3.16-13.38,2.47,2.73,8.19,6.16,10.47,7.39-2.46,18.13-7.92,21.91-13,21.56-15.22-1.58-22.09-17.16-25.25-43.73L121.1,43.28,119.25,31l15.84-2.2c-.62-7.83-1-16.45-1.23-25.78h13c.09,8.53.35,16.63.88,24l24.47-3.34L174,35.8Zm13.47-17C160.61,18.2,155.77,12,151.63,7.47l9.68-5.9c4.23,4.14,9.33,10,11.53,14.25Z"/><path class="b4a9ec83-94d2-4926-8323-9577eb9837ea" d="M186.22,16.35c.35-2.73.88-6.68,1-9.94l14.6,1.23a81.24,81.24,0,0,0-2.46,9c-1.14,5.1-4.22,26.13-4.22,34.76a20.26,20.26,0,0,0,.17,3.16c1.06-2.81,2.29-4.92,3.52-7.74L205.32,52c-2.73,8-5.55,17.25-6.69,22.44a25.71,25.71,0,0,0-.53,4.22c0,1.06,0,2.65.09,4.14l-11.88.88c-1.94-6.25-3.7-16.89-3.7-29.3C182.61,40.38,185.16,23.13,186.22,16.35ZM227.76,51.2c1.67,0,3.43.09,5,.18-.26-5-.62-10.92-.7-16.81-1.85.09-3.7.09-5.55.09-5.37,0-10.82-.18-16.19-.62l-.09-12.58a141.88,141.88,0,0,0,16.2.88c1.93,0,3.69,0,5.54-.09-.18-8.1.26-9.59-.88-15.75h15.13c-.87,5.19-.7,8-.87,14.87,4.75-.53,9.32-1.23,13.55-2.11v13.2c-4.14.52-8.8,1-13.64,1.49.17,8.45.61,15.23,1,20.77a58.18,58.18,0,0,1,17.6,11.88l-7.12,11.09a92.19,92.19,0,0,0-10.21-8.54c-1,8.54-6.43,14.17-18.57,14.17-12.76,0-21.12-5.46-21.12-15.66C206.81,57.71,215.08,51.2,227.76,51.2Zm-1.15,19.62c5.28,0,6.6-2.9,6.6-8.53a26.87,26.87,0,0,0-6.51-.88c-4.49,0-7.57,1.76-7.57,4.84C219.13,69.59,222.47,70.82,226.61,70.82Z"/><path class="b4a9ec83-94d2-4926-8323-9577eb9837ea" d="M314.17.78c9.5,13.9,23.32,25.6,37.22,31.68A58.63,58.63,0,0,0,343,43.72a121.47,121.47,0,0,1-16.28-11.44v7.57H289.79V32.54a120.88,120.88,0,0,1-15.66,11.09A52.08,52.08,0,0,0,266,33.42C280.82,25.5,294.81,11.51,301.15.78Zm14.7,45.4,10.29,2.91c-4.4,11.44-10.56,25-15.93,36.34l-13.72-3.7c3.61-7.12,7.65-15.66,10.82-23h-43V46.71h49.37Zm-7.13-18.12a96.73,96.73,0,0,1-13.55-14.7A94.57,94.57,0,0,1,295,28.06Z"/><path class="b4a9ec83-94d2-4926-8323-9577eb9837ea" d="M374.54,7.2l5.19,34c.62,4.13,2.47,18.65,3.08,22.88h.44c1.41-7.66,2.91-15.4,4.4-22.88l7.83-34h13.29l8,34c1.5,7.39,2.82,15.13,4.31,22.88h.53c1-7.75,2-15.4,3-22.88l5.1-34h15L431.74,79H412.12l-7.31-33.62c-1.14-5.54-2.2-11.17-3-16.63h-.44c-1,5.46-1.76,11.09-2.9,16.63L391.35,79H372.08L358.53,7.2Z"/><path class="b4a9ec83-94d2-4926-8323-9577eb9837ea" d="M454.88,7.2h44.71v13h-29V35.36h24.64V48.47H470.55V65.9h30.09V79H454.88Z"/><path class="b4a9ec83-94d2-4926-8323-9577eb9837ea" d="M515,7.2h24.37c14.79,0,26.32,4.14,26.32,17.69,0,6.51-3.61,13.37-9.6,15.57v.44c7.57,1.85,13.12,7.22,13.12,16.9C569.2,72.32,557,79,541.21,79H515ZM538.4,36.06c8.27,0,12.05-3.43,12.05-8.8,0-5.8-3.87-8.09-11.88-8.09h-7.92V36.06ZM540,67c9.15,0,14-3.25,14-10.12,0-6.51-4.75-9.15-14-9.15h-9.33V67Z"/><path class="b4a9ec83-94d2-4926-8323-9577eb9837ea" d="M10.13,108.8c8.27-.7,22.53-1.85,39.25-3.34,9.24-.71,19.8-1.32,26.4-1.59l.09,13.64c-4.76,0-12.59.09-17.6,1.06C48.06,121,39.61,132,39.61,142.86c0,13.9,13.11,19.27,28.78,20.06l-4.93,14.69c-20.06-1.4-37.75-12.32-37.75-31.94a36.78,36.78,0,0,1,12.14-27.1c-7.92.88-24.81,2.73-35.73,5.1L.8,109.33C4.5,109.24,8.37,109.06,10.13,108.8Zm53,16.63a121.15,121.15,0,0,1,7.21,12.5l-7.83,3.43a71.24,71.24,0,0,0-7.13-12.67Zm10.38-4.31c2.38,3.26,5.81,8.62,7.74,12.06l-7.83,3.69a82.08,82.08,0,0,0-7.48-12.32Z"/><path class="b4a9ec83-94d2-4926-8323-9577eb9837ea" d="M167.3,137.66c-3.35,2.91-6.69,6.08-9.59,8.63,2.55,7.48,5.72,14.08,9.59,18.83a41.2,41.2,0,0,0-8.63,9.24c-7.74-10.74-12.4-27.9-15.4-45.76h-2a67.5,67.5,0,0,1-5.1,4.84c15.4,14,14.25,35.9,7.12,42.15-2.81,3-5.72,3.87-9.94,4-1.85.09-3.87,0-5.89-.09A26.74,26.74,0,0,0,125,169.34a78.24,78.24,0,0,1-11.7,6.16,41.46,41.46,0,0,0-5.81-9.06c9.94-3.08,20.94-9.77,27.54-16.81a13.68,13.68,0,0,0-.88-2,112.67,112.67,0,0,1-18.57,11.26,34.65,34.65,0,0,0-5.8-8.18,80.37,80.37,0,0,0,19.71-10.12c-.44-.44-.88-1-1.32-1.41a86.18,86.18,0,0,1-10,5.28,55,55,0,0,0-6.34-8.36,67.38,67.38,0,0,0,15.4-7.48h-9.33v-7.74h-4.13V107.22a71.44,71.44,0,0,1-8,2.46V121.3h7.83v11.52h-7.65c2.55,2.2,8.09,7.75,9.32,9.24l-6.6,9.24c-.7-1.58-1.76-3.6-2.9-5.63v34.06H93.64v-26.4A68.08,68.08,0,0,1,87,166.79a67.65,67.65,0,0,0-5.63-12.32c4-5.45,7.75-14,10.21-21.65H83V121.3H93.64v-9c-2.81.53-5.54.88-8.18,1.23A42.27,42.27,0,0,0,82,104.31c9-1.49,18.65-4,24.81-6.86l8,8.27h18.83v-9.5h12.41v9.5h19.36v15.14h-4v7.74H153c.53,2.55,1.06,5,1.67,7.48a68.29,68.29,0,0,0,4.23-5.72ZM125,115.22v3.7h28.6v-3.7Zm10.12,51.84c1.06-1.15,1.76-3.53,1.85-6.61a89.64,89.64,0,0,1-11.18,8.36,39,39,0,0,0,5.28.36C132.8,169.17,134.12,168.81,135.09,167.06Z"/><path class="b4a9ec83-94d2-4926-8323-9577eb9837ea" d="M182,127c7.3-5.9,19.18-15.76,25.43-21.74,2.9-2.82,6.16-6,7.74-8.36l12.32,10.91c-3.26,2.38-6.34,4.84-8.8,6.69-5.72,4.4-17.33,13.38-23.23,18.39-2.2,2-3.34,3.17-3.34,4.4s1.14,2.47,3.51,4.49c6.25,5.37,24.12,19.36,33.27,28.07l-12.32,11.35c-2.82-3.17-5.9-6.25-8.71-9.24-5.11-5.19-18.39-16.72-26.75-23.76-4.49-3.87-6.6-7-6.6-10.29C174.52,134.5,177,131.06,182,127Zm39.42-7.22c2.46,3.43,6,10.47,7.65,13.73l-8.62,3.69c-1.93-3.87-4.93-10.38-7.48-14.08Zm11.26-4.58c2.47,3.61,6,10.56,7.75,13.82l-8.54,3.61c-2-3.87-5.19-10.21-7.74-13.82Z"/><path class="b4a9ec83-94d2-4926-8323-9577eb9837ea" d="M273.6,162.83H256.36V171h-11.8v-69.7h29Zm-17.24-50.16V126h5.36V112.67Zm5.36,38.81V137.05h-5.36v14.43Zm55.53-18.66v6.08h7.48V150h-7.48V166.7c0,5.81-1.06,9-4.93,10.83s-8.8,2.11-15.13,2.11a43.61,43.61,0,0,0-4-12c3.69.18,8.44.18,9.76.18s1.76-.27,1.76-1.41V150H275.19V138.9h29.56v-6.08H275.19V121.65h18.65v-5.81H277.65v-11h16.19V96h12.59v8.8h16.8v11h-16.8v5.81h18.74v11.17Zm-30.1,37.49c-1.49-4.05-5.71-10.12-9.5-14.52L287.86,150c3.87,4.14,8.45,9.77,10.29,14Z"/><path class="b4a9ec83-94d2-4926-8323-9577eb9837ea" d="M363.45,100.79A134.69,134.69,0,0,1,355.88,116v63.53H342.6V135.46a100.7,100.7,0,0,1-7.66,8.19,91.79,91.79,0,0,0-7-13.2c9.15-7.92,18.13-20.77,23.32-33.71Zm24.64,33.09c2.11,17.51,6.07,29,11.88,30,1.76.17,2.64-4,3.17-13.38,2.46,2.73,8.18,6.16,10.47,7.39-2.46,18.13-7.92,21.91-13,21.56-15.23-1.58-22.09-17.16-25.26-43.73l-15.13,2.11-1.85-12.32,15.84-2.2c-.62-7.83-1-16.46-1.23-25.78h13c.09,8.53.35,16.63.88,24l24.46-3.34,1.76,12.14Zm13.46-17c-1.84-4.14-6.68-10.39-10.82-14.88l9.68-5.89c4.22,4.14,9.33,10,11.53,14.25Z"/><path class="b4a9ec83-94d2-4926-8323-9577eb9837ea" d="M424.79,137.4c4-4.22,10.82-13.2,16.63-19.8,3.61-4.22,7.21-6.25,10.73-6.25,3.08,0,6.25,1.59,9.42,4.58,6.51,6.33,13.9,15.93,19.1,21.56,6,6.51,13.28,14.16,22.17,22.26l-10.91,12.58A264.47,264.47,0,0,1,472.31,151c-5.55-6.69-12.32-15.4-16.63-20.24-1.41-1.49-2.56-2.29-3.53-2.29-1.23,0-2.28,1-3.6,2.56-3.35,4.31-9.42,12.93-13,18-2.2,3.17-4.31,6.68-6.07,9.33L416.6,145A80.67,80.67,0,0,0,424.79,137.4Z"/><path class="b4a9ec83-94d2-4926-8323-9577eb9837ea" d="M523.35,156.76a10,10,0,0,1,0,19.89c-5.46,0-9.42-4.4-9.42-10S517.89,156.76,523.35,156.76Zm7.92-55.26-.53,14.25-2.29,34.32H518.33l-2.2-34.32-.53-14.25Z"/></svg>