<svg xmlns="http://www.w3.org/2000/svg" width="40" height="38.746" viewBox="0 0 40 38.746"><defs><style>.a{fill:#151515;}</style></defs><g transform="translate(-164.232 -2901.057)"><g transform="translate(164.232 2901.057)"><path class="a" d="M203.993,2939.8l-1.7-3.4a.627.627,0,0,0-.563-.346h-.625V2917.3h1.875v-1.25h-1.875v-11.874a3.127,3.127,0,0,0-3.124-3.124h-8.749a3.128,3.128,0,0,0-3.125,3.124v.625a1.875,1.875,0,0,0-1.875,1.875v.625h-3.125a1.874,1.874,0,0,0-1.874,1.875v1.25a.624.624,0,0,0,.624.625h9.375v-1.25h-8.75v-.625a.625.625,0,0,1,.625-.625h11.249a.625.625,0,0,1,.625.625v.625h-2.5v1.25h3.125a.625.625,0,0,0,.625-.625v-1.25a1.874,1.874,0,0,0-1.875-1.875h-3.124v-.625a1.876,1.876,0,0,0-1.875-1.875v-.625a1.875,1.875,0,0,1,1.875-1.875h8.749a1.876,1.876,0,0,1,1.875,1.875v11.874h-3.125v1.25h3.125v8.749h-1.875v-1.25h-1.25v3.75h1.25v-1.25h1.875v8.749h-.625a.627.627,0,0,0-.563.346l-1.7,3.4m-8.988-33.122v.625h-2.5v-.625a.625.625,0,0,1,.625-.625h1.25A.625.625,0,0,1,187.984,2906.681ZM202.6,2939.8h-4.227m0,0,1.25-2.5h1.727l1.25,2.5" transform="translate(-163.993 -2901.057)"/><path class="a" d="M182.359,2912.306h1.25v2.5h-1.25Z" transform="translate(-164.119 -2901.057)"/><path class="a" d="M182.359,2916.055h1.25v1.25h-1.25Z" transform="translate(-164.119 -2901.057)"/><path class="a" d="M182.359,2922.3h1.25v1.249h-1.25Z" transform="translate(-164.119 -2901.057)"/><path class="a" d="M187.359,2922.3h1.25v1.249h-1.25Z" transform="translate(-164.088 -2901.057)"/><path class="a" d="M182.359,2918.555h1.25v2.5h-1.25Z" transform="translate(-164.119 -2901.057)"/><path class="a" d="M184.859,2914.8h1.25v2.5h-1.25Z" transform="translate(-164.104 -2901.057)"/><path class="a" d="M184.859,2918.555h1.25v1.25h-1.25Z" transform="translate(-164.104 -2901.057)"/><path class="a" d="M184.859,2921.055h1.25v3.749h-1.25Z" transform="translate(-164.104 -2901.057)"/><path class="a" d="M189.859,2914.8h1.249v2.5h-1.249Z" transform="translate(-164.073 -2901.057)"/><path class="a" d="M189.859,2918.555h1.249v1.25h-1.249Z" transform="translate(-164.073 -2901.057)"/><path class="a" d="M189.859,2921.055h1.249v3.749h-1.249Z" transform="translate(-164.073 -2901.057)"/><path class="a" d="M187.359,2912.306h1.25v2.5h-1.25Z" transform="translate(-164.088 -2901.057)"/><path class="a" d="M187.359,2916.055h1.25v1.25h-1.25Z" transform="translate(-164.088 -2901.057)"/><path class="a" d="M187.359,2918.555h1.25v2.5h-1.25Z" transform="translate(-164.088 -2901.057)"/><path class="a" d="M192.358,2922.3h1.25v1.249h-1.25Z" transform="translate(-164.057 -2901.057)"/><path class="a" d="M192.358,2912.306h1.25v2.5h-1.25Z" transform="translate(-164.057 -2901.057)"/><path class="a" d="M192.358,2916.055h1.25v1.25h-1.25Z" transform="translate(-164.057 -2901.057)"/><path class="a" d="M192.358,2918.555h1.25v2.5h-1.25Z" transform="translate(-164.057 -2901.057)"/><path class="a" d="M189.859,2912.306h1.249v1.249h-1.249Z" transform="translate(-164.073 -2901.057)"/><path class="a" d="M184.859,2912.306h1.25v1.249h-1.25Z" transform="translate(-164.104 -2901.057)"/><path class="a" d="M179.859,2914.8h1.25v2.5h-1.25Z" transform="translate(-164.135 -2901.057)"/><path class="a" d="M179.859,2918.555h1.25v1.25h-1.25Z" transform="translate(-164.135 -2901.057)"/><path class="a" d="M179.859,2921.055h1.25v3.749h-1.25Z" transform="translate(-164.135 -2901.057)"/><path class="a" d="M179.859,2912.306h1.25v1.249h-1.25Z" transform="translate(-164.135 -2901.057)"/><path class="a" d="M165.486,2924.8v11.882a.625.625,0,0,0,.625.625h7.5a.625.625,0,0,0,.625-.625v-11.936l1.25-.008v1.32h1.25V2922.3h-1.25v1.176l-11.253.073.008,1.25Zm1.25,7.508h6.249v.625h-6.249Zm0,3.749v-1.875h6.249v1.875Zm6.249-5h-6.249v-6.266l6.249-.041Z" transform="translate(-164.232 -2901.057)"/><path class="a" d="M170.485,2919.18c2.8,0,5-3.294,5-7.5s-2.2-7.5-5-7.5-5,3.294-5,7.5S167.682,2919.18,170.485,2919.18Zm0-13.749c2.033,0,3.75,2.862,3.75,6.25s-1.717,6.249-3.75,6.249-3.749-2.862-3.749-6.249S168.453,2905.431,170.485,2905.431Z" transform="translate(-164.232 -2901.057)"/><path class="a" d="M167.583,2911.2l3.749-3.124.8.96-3.748,3.124Z" transform="translate(-164.232 -2901.057)"/><path class="a" d="M168.832,2914.324l3.749-3.124.8.96-3.749,3.123Z" transform="translate(-164.232 -2901.057)"/></g></g></svg>