<svg xmlns="http://www.w3.org/2000/svg" width="28.106" height="27.428" viewBox="0 0 28.106 27.428"><defs><style>.a{fill:none;stroke:#1a1a1a;stroke-miterlimit:10;stroke-width:2px;}.b{fill:#1a1a1a;}</style></defs><g transform="translate(-107.731 -3508.5)"><path class="a" d="M122,3509.5c-8.407,0-13.274,4.867-13.274,10.619,0,9.735,12.168,10.62,12.168,10.62v3.761c4.867-1.77,13.938-8.186,13.938-14.381S129.527,3509.5,122,3509.5Z"/><path class="b" d="M116.679,3523.351H112.56v-6.224h1.489v5.026h2.629Z"/><rect class="b" width="1.589" height="6.224" transform="translate(117.894 3517.127)"/><path class="b" d="M125.707,3523.351h-1.39l-2.005-3.819H122.3v3.819h-1.39v-6.224h1.39l2.005,3.819h.017v-3.819h1.39Z"/><path class="b" d="M130.974,3518.3h-2.521v1.265h2.355v1.1h-2.355v1.523h2.521v1.165H127v-6.224h3.969Z"/></g></svg>