<svg xmlns="http://www.w3.org/2000/svg" width="40.07" height="50.039" viewBox="0 0 40.07 50.039"><defs><style>.a{fill:#151515;}</style></defs><g transform="translate(-47.716 -2758.157)"><path class="a" d="M66.966,2801.512a16.118,16.118,0,1,0-16.125-16.118A16.141,16.141,0,0,0,66.966,2801.512Zm14.172-16.118a14.145,14.145,0,0,1-5.795,11.415l-6.932-10.983,9.289-3.853a.978.978,0,0,0-.749-1.806l-9.007,3.738v-12.639A14.208,14.208,0,0,1,81.139,2785.395Zm-15.149-14.129v14.384l7.7,12.207a14.164,14.164,0,1,1-7.7-26.591Z" transform="translate(0.784 2.791)"/><path class="a" d="M87.379,2784.15a19.856,19.856,0,0,0-3.014-7.161c-.314-.464-.649-.914-1-1.352l2.9-3.2a.977.977,0,0,0-.068-1.381l-3.757-3.409a.978.978,0,0,0-1.381.066l-3,3.3a19.892,19.892,0,0,0-6.277-2.449l-.214-.041.782-2.343,2.179-1.089a.981.981,0,0,0,.545-.874v-3.043a3.03,3.03,0,0,0-3.016-3.02H63.437a3.03,3.03,0,0,0-3.016,3.02v3.043a.982.982,0,0,0,.545.874l2.177,1.087.783,2.345-.213.04a19.868,19.868,0,0,0-6.195,2.4l-2.954-3.252a.977.977,0,0,0-1.38-.066l-3.758,3.409a.975.975,0,0,0-.068,1.38l2.838,3.125c-.374.46-.729.936-1.061,1.426a20.052,20.052,0,0,0-2.049,18.493.967.967,0,0,0,.365.455.976.976,0,0,0,1.454-1.167,18.079,18.079,0,0,1,14.428-24.495h4.833a18.071,18.071,0,1,1-14.56,31.3.978.978,0,0,0-1.314,1.449,19.959,19.959,0,0,0,13.456,5.175h0a20.165,20.165,0,0,0,4.038-.4,19.886,19.886,0,0,0,7.163-3.007,20.041,20.041,0,0,0,7.259-8.809,19.821,19.821,0,0,0,1.167-3.758,20.171,20.171,0,0,0,0-8.071Zm-33.794-10.124-.074.076-2.045-2.253,2.309-2.1,2.1,2.308A20.227,20.227,0,0,0,53.584,2774.026Zm16-5.7H65.918l-.732-2.2a10.249,10.249,0,0,1,5.129.005Zm-5.578-3.893-1.63-.812v-2.439a1.072,1.072,0,0,1,1.061-1.065h8.628a1.072,1.072,0,0,1,1.061,1.065v2.439l-1.636.817a12.061,12.061,0,0,0-7.483-.005Zm15.751,7.634,2.1-2.308,2.311,2.1-2.1,2.308Z" transform="translate(0)"/><path class="a" d="M54.942,2781.39a.978.978,0,1,0,.978.977A.978.978,0,0,0,54.942,2781.39Z" transform="translate(1.569 5.831)"/><path class="a" d="M63.933,2792.313a.977.977,0,1,0-.977-.976A.978.978,0,0,0,63.933,2792.313Z" transform="translate(3.825 8.082)"/><path class="a" d="M71.935,2782.338v.023a.977.977,0,1,0,1.954,0v-.028a.977.977,0,0,0-1.954,0Z" transform="translate(6.079 5.824)"/><circle class="a" cx="0.977" cy="0.977" r="0.977" transform="translate(51.081 2798.02)"/></g></svg>