<svg xmlns="http://www.w3.org/2000/svg" width="40" height="31.825" viewBox="0 0 40 31.825"><defs><style>.a{fill:#151515;}</style></defs><g transform="translate(-43.527 -2628.457)"><path class="a" d="M78.058,2657.157a.781.781,0,1,0-.782-.781A.781.781,0,0,0,78.058,2657.157Z"/><path class="a" d="M43.713,2639.994a8.626,8.626,0,0,0,.91,2.482,15.312,15.312,0,0,1,2.026,7.381v9.644a.781.781,0,0,0,.781.781h3.126a.781.781,0,0,0,.781-.781v-8.717a11.8,11.8,0,0,1,1.174-5.114l.072-.115a31.262,31.262,0,0,1,8.594,11.4,5.513,5.513,0,0,0,5.022,3.327h6.389a46.962,46.962,0,0,0,7.315-.374c.9-.155,3.624-.624,3.624-2.751,0-1.2-1-2.95-2.54-4.45a11.568,11.568,0,0,0-6.184-3.2.78.78,0,0,0-.637.193,5.923,5.923,0,0,1-3.609,1.206,5.469,5.469,0,0,1-4.608-2.484.808.808,0,0,0-.049-.081l-5.216-7.441a60.262,60.262,0,0,0-11.453-12.269.78.78,0,0,0-.978,0,12.777,12.777,0,0,0-3.025,3.456,11.393,11.393,0,0,0-1.52,7.888Zm6.061,10.79v7.935H48.212v-8.862c0-.235-.008-.488-.023-.752a18.207,18.207,0,0,0-2.448-7.88,31.126,31.126,0,0,1,5.608,3.355A12.7,12.7,0,0,0,49.774,2650.784Zm-3.2-17.9a11.171,11.171,0,0,1,2.176-2.629A58.7,58.7,0,0,1,59.4,2641.8l5.189,7.4a7.045,7.045,0,0,0,5.963,3.268,7.782,7.782,0,0,0,4.351-1.36,10.134,10.134,0,0,1,4.99,2.718,6.165,6.165,0,0,1,2.066,3.33c0,.67-1.265,1.028-2.326,1.211a45.748,45.748,0,0,1-7.05.351H66.2a3.951,3.951,0,0,1-3.592-2.393,32.8,32.8,0,0,0-17.435-17.058A9.972,9.972,0,0,1,46.571,2632.883Z"/><path class="a" d="M66.182,2657.157h8.75a.781.781,0,1,0,0-1.563h-8.75a.781.781,0,1,0,0,1.563Z"/></g></svg>