<svg xmlns="http://www.w3.org/2000/svg" width="40" height="40" viewBox="0 0 40 40"><defs><style>.a{fill:#151515;}</style></defs><g transform="translate(-285.253 -2620.282)"><path class="a" d="M298.533,2632.682l1.22.533a6,6,0,0,1,5.5-3.6v-1.333A7.335,7.335,0,0,0,298.533,2632.682Z"/><path class="a" d="M321.92,2634.949v-6.92a3.334,3.334,0,0,0-4.427-3.147l-7.613,2.667a9.228,9.228,0,0,0-4.627-1.267,9.332,9.332,0,0,0-8.666,5.847l-8.16,2.82a3.333,3.333,0,0,0-3.174,3.333v18.667a3.334,3.334,0,0,0,3.334,3.333H321.92a3.333,3.333,0,0,0,3.333-3.333v-18.667A3.333,3.333,0,0,0,321.92,2634.949Zm-4-8.807a2,2,0,0,1,2.667,1.887v6.92h-1.334v-6H317.92v6h-3.333a9.337,9.337,0,0,0-3.334-6.487Zm-12.667,1.473a8,8,0,0,1,8,7.334H297.287A8,8,0,0,1,305.253,2627.615Zm-9.133,6.094a9.566,9.566,0,0,0-.167,1.24H292.54Zm27.8,23.24a2,2,0,0,1-2,2H288.587a2,2,0,0,1-2-2v-18.667a2,2,0,0,1,2-2H321.92a2,2,0,0,1,2,2Z"/><rect class="a" width="1.333" height="6.667" transform="translate(297.253 2620.282)"/><rect class="a" width="1.333" height="5.333" transform="translate(294.587 2624.282)"/><path class="a" d="M299.92,2650.949h-10a.667.667,0,0,0-.667.666v4a.667.667,0,0,0,.667.667h10a.667.667,0,0,0,.667-.667v-4A.667.667,0,0,0,299.92,2650.949Zm-.667,4h-8.666v-2.667h8.666Z"/><rect class="a" width="1.333" height="16" transform="translate(320.587 2640.282)"/></g></svg>