<svg xmlns="http://www.w3.org/2000/svg" width="40.207" height="55.485" viewBox="0 0 40.207 55.485"><defs><style>.a{fill:#151515;}.b{fill:none;stroke:#151515;stroke-miterlimit:10;stroke-width:2px;}</style></defs><g transform="translate(-55.793 -7020.874)"><g transform="translate(-236.081 4262.718)"><g transform="translate(292.081 2758.157)"><path class="a" d="M329.657,2797.908a5.487,5.487,0,0,0-4.178-4.292h0c-.037-.011.315.078-8.382-2.078v-.3h6.4a2.4,2.4,0,0,0,2.394-2.393V2776.64a3.017,3.017,0,0,0,0-1.381V2770.8a.813.813,0,1,0-1.626,0v2.333a4.235,4.235,0,0,0-1.448-.532,2.12,2.12,0,0,0-1.787-1.634,2.651,2.651,0,0,1-2.095-1.612,1.395,1.395,0,0,0-2.376-.216,14.866,14.866,0,0,1-11.989,6.166c-.51,0-.857-.023-.977-.029a2.15,2.15,0,0,0-2.275,2.146v1.868a10.96,10.96,0,0,0,5.745,9.647v.675h-6.372a.768.768,0,0,1-.767-.767v-18.266a10.8,10.8,0,0,1,10.66-10.8h.057a13.858,13.858,0,0,1,6.145,1.512c1.043.576,1.687.118,2.715.118,2.512,0,4.525,2.583,4.766,4.906,0,.033.006.169.006.691a.828.828,0,0,0,.813.813.813.813,0,0,0,.813-.812c0-.146,0-.712-.013-.842-.327-3.233-3.085-6.38-6.383-6.38-1.289,0-1.49.327-1.93.084a15.632,15.632,0,0,0-6.923-1.715,12.419,12.419,0,0,0-12.352,12.427v18.266a2.4,2.4,0,0,0,2.394,2.393h6.372v.3l-8.349,2.07-.032.008-.61.181-.054.018a5.39,5.39,0,0,0-3.515,4.093c-2.475,12.429-2.369,11.9-2.376,11.94-.3,2.108.757,3.793,3.3,3.793h8.79a.813.813,0,1,0,0-1.625h-3.059v-7.667a.813.813,0,1,0-1.626,0v7.667h-4.106c-1.079,0-1.706-.347-1.717-1.481,0-.553-.026-.014,2.393-12.308a3.8,3.8,0,0,1,2.462-2.879l.565-.167,4.794-1.189c5.333,6.284,5.017,5.951,5.325,6.25a3.939,3.939,0,0,0,5.992-.349l5.02-5.9,4.776,1.185a3.94,3.94,0,0,1,3.028,3.044c2.4,12.189,2.4,11.753,2.391,12.308-.008,1.111-.609,1.483-1.717,1.483H324.66v-7.667a.813.813,0,1,0-1.626,0v7.667H308.009a.813.813,0,1,0,0,1.625h20.728c2.009,0,3.325-1.1,3.343-3.094C332.087,2809.618,332.032,2810.062,329.657,2797.908Zm-6.784-23.625a2.045,2.045,0,0,1,1.394,1.2v.932a2.039,2.039,0,0,1-1.394,1.2Zm0,5.153v-.151a4.182,4.182,0,0,0,1.394-.521v10.087a.768.768,0,0,1-.767.767h-6.4v-.628A10.762,10.762,0,0,0,322.872,2779.436Zm-17.032,6.622a9.394,9.394,0,0,1-2.894-6.765c.049-1.77-.118-1.983.165-2.25a.514.514,0,0,1,.386-.14,16.326,16.326,0,0,0,14.151-6.5,4.169,4.169,0,0,0,3.172,2.182.488.488,0,0,1,.424.483v6.37A9.13,9.13,0,0,1,305.84,2786.058ZM314,2798.84a2.352,2.352,0,0,1-3.848-.007l-1.7-2h7.253Zm3.095-3.636H307.08l-1.4-1.648,2.391-.594a.82.82,0,0,0,.617-.8v-2.515a10.773,10.773,0,0,0,6.779.022,14.469,14.469,0,0,0,.046,2.769.815.815,0,0,0,.571.52l2.408.6Z" transform="translate(-292.081 -2758.156)"/></g></g><line class="b" x1="37.5" y2="37.5" transform="translate(56.5 7024.375)"/></g></svg>