<svg xmlns="http://www.w3.org/2000/svg" width="39.42" height="40" viewBox="0 0 39.42 40"><defs><style>.a{fill:#151515;}</style></defs><g transform="translate(-164.314 -2620.282)"><path class="a" d="M187.839,2626.509a7.63,7.63,0,1,0,7.63,7.63A7.638,7.638,0,0,0,187.839,2626.509Zm0,13.988a6.358,6.358,0,1,1,6.358-6.358A6.365,6.365,0,0,1,187.839,2640.5Z"/><path class="a" d="M202.787,2622.776c-9.514,5.351-14.224-1.417-14.419-1.706l-.527-.788-.53.787c-.2.29-4.9,7.059-14.42,1.707l-.947-.533v16.347a18.22,18.22,0,0,0,.7,4.325l-8.327-1.249v9.707l11.65-1.165a29.337,29.337,0,0,0,11.591,9.932l.284.142.284-.142c15.433-7.716,15.611-21.413,15.611-21.55v-16.347Zm-37.2,20.367,11.444,1.716v3.963l-11.444,1.145Zm20.685,3.076a1.571,1.571,0,0,0,1.545-1.295l2.566-.1a.352.352,0,0,1,.3.164.333.333,0,0,1,.021.33c-.827,1.767-3.683,5.594-12.4,3.58v-4.382a3.125,3.125,0,0,1,2.543-.837h5.426a.3.3,0,0,1,.3.3v.679a.3.3,0,0,1-.3.3h-4.154v1.271Zm16.192-7.63c0,.128-.2,12.894-14.624,20.27a28.2,28.2,0,0,1-10.422-8.8l.2-.021c9.93,2.442,13.261-2.11,14.234-4.189a1.606,1.606,0,0,0-.1-1.55,1.629,1.629,0,0,0-1.4-.753h0l-2.551.1a1.572,1.572,0,0,0-1.536-1.248h-5.426a4.424,4.424,0,0,0-3.462,1.222l-3.362-.5a18.056,18.056,0,0,1-.8-4.532v-14.2c8.142,4.064,13.074-.227,14.623-1.957,1.549,1.73,6.48,6.02,14.624,1.957Z"/><path class="a" d="M190.977,2633.64v-1.353h-2.093l1.906-2.15-1.012-.9-2,2.261-2-2.261-1.012.9,1.906,2.15h-2.111v1.353h2.536v1.184h-2.536v1.353h2.536v2.367h1.353v-2.367h2.536v-1.353h-2.536v-1.184Z"/></g></svg>