<svg xmlns="http://www.w3.org/2000/svg" width="25.42" height="40" viewBox="0 0 25.42 40"><defs><style>.a{fill:#151515;}</style></defs><g transform="translate(-50.904 -2899.803)"><g transform="translate(50.904 2899.803)"><path class="a" d="M75.655,2910.369h-.747l-.6-4.766a.668.668,0,0,0-.663-.586H72.131l2.1-3.631,1.159.669.669-1.159-1.738-1a.669.669,0,0,0-.914.244l-2.818,4.88H53.58a.669.669,0,0,0-.664.586l-.6,4.766h-.747a.668.668,0,0,0-.669.669v2.675a.668.668,0,0,0,.669.669h.7l1.31,24.81a.669.669,0,0,0,.669.611H72.98a.67.67,0,0,0,.669-.611l1.309-24.81h.7a.668.668,0,0,0,.669-.669v-2.675A.668.668,0,0,0,75.655,2910.369Zm-21.485-4.014H73.058l.167,1.338h-7.6v1.338h7.771l.168,1.338H53.669Zm18.2,32.11h-17.5l-1.252-24.083h20.01Zm2.621-25.421H52.242v-1.337H74.987Z" transform="translate(-50.904 -2899.803)"/><rect class="a" width="1.338" height="1.338" transform="translate(12.041 7.89)"/><path class="a" d="M63.614,2933.113c2.951,0,5.352-3,5.352-6.689s-2.4-6.69-5.352-6.69-5.352,3-5.352,6.69S60.663,2933.113,63.614,2933.113Zm.182-11.92c.031-.035.062-.069.094-.1,2.088.194,3.738,2.508,3.738,5.333a5.594,5.594,0,0,1-2.475,4.94,4.535,4.535,0,0,0-1.071-5.413A3.37,3.37,0,0,1,63.8,2921.193Zm-1.72.29a4.535,4.535,0,0,0,1.07,5.414,3.37,3.37,0,0,1,.287,4.757c-.031.035-.063.069-.095.1-2.087-.194-3.738-2.509-3.738-5.333A5.6,5.6,0,0,1,62.076,2921.483Z" transform="translate(-50.904 -2899.803)"/></g></g></svg>