<svg xmlns="http://www.w3.org/2000/svg" width="106" height="106" viewBox="0 0 106 106"><defs><style>.a{fill:#151515;}</style></defs><path class="a" d="M263.375,234.667a28.708,28.708,0,1,0,28.708,28.708A28.741,28.741,0,0,0,263.375,234.667Zm0,53a24.292,24.292,0,1,1,24.292-24.292A24.318,24.318,0,0,1,263.375,287.667Z" transform="translate(-186.084 -186.084)"/><path class="a" d="M37.542,88.333h-26.5a6.633,6.633,0,0,1-6.625-6.625V11.042a6.633,6.633,0,0,1,6.625-6.625H59.625a6.633,6.633,0,0,1,6.625,6.625v26.5a2.208,2.208,0,1,0,4.417,0v-26.5A11.057,11.057,0,0,0,59.625,0H11.042A11.057,11.057,0,0,0,0,11.042V81.708A11.057,11.057,0,0,0,11.042,92.75h26.5a2.208,2.208,0,1,0,0-4.417Z"/><path class="a" d="M101.538,167a2.209,2.209,0,0,0,2.208-2.208v-13.25a2.209,2.209,0,0,0-2.208-2.208H88.288a2.208,2.208,0,0,0,0,4.417h7.919L85.642,164.314l-7.411-3.706a2.2,2.2,0,0,0-2.548.415L64.641,172.066a2.208,2.208,0,0,0,3.122,3.123l9.916-9.916,7.411,3.706a2.213,2.213,0,0,0,2.548-.415l11.691-11.691v7.919A2.209,2.209,0,0,0,101.538,167Z" transform="translate(-50.746 -118.416)"/><path class="a" d="M336.219,310.684l-7.063.008-.006-4.494,7.063-.008a2.569,2.569,0,1,0,0-5.138l-5.383.008,5.453-6.166.132-.151a.035.035,0,0,0,.014-.015,2.575,2.575,0,0,0-3.791-3.47l-.283.321-5.746,6.5-5.785-6.51-.243-.272a2.575,2.575,0,0,0-3.858,3.389L317,295l5.388,6.063-5.449.007a2.569,2.569,0,0,0,.007,5.138l7.065-.01,0,4.5-7.065.007a2.57,2.57,0,0,0,.008,5.139l7.065-.01.006,6.421a2.568,2.568,0,0,0,2.572,2.565,2.568,2.568,0,0,0,2.564-2.571l-.008-6.419,7.063-.008a2.57,2.57,0,0,0-.006-5.139Z" transform="translate(-249.293 -230.39)"/></svg>