<svg id="f804fd7b-8fe7-4d94-8dfb-8b9f6ed12ff4" data-name="レイヤー 1" xmlns="http://www.w3.org/2000/svg" viewBox="0 0 381 139"><defs><style>.a2a84c1a-5791-4eb3-ab3b-7cac01cea8ec{fill:#fff;}</style></defs><path class="a2a84c1a-5791-4eb3-ab3b-7cac01cea8ec" d="M19.75,109.35q0,4.65,2.62,7.16A9.73,9.73,0,0,0,29.43,119c3.74,0,6.23-1.1,7.45-3.29a17.73,17.73,0,0,0,2.23-6.58H58.85q0,13-7.93,20.9a27.85,27.85,0,0,1-9.3,6.39,30.6,30.6,0,0,1-12.19,2.32q-9.29,0-15.77-3.87a26.6,26.6,0,0,1-10-10.26,26.87,26.87,0,0,1-2.91-8.9,73.67,73.67,0,0,1-.77-11V72.38a73.53,73.53,0,0,1,.77-11,26.93,26.93,0,0,1,2.91-8.91,26.67,26.67,0,0,1,10-10.26q6.48-3.87,15.77-3.87a31.34,31.34,0,0,1,12.29,2.33A27.38,27.38,0,0,1,51.11,47q7.74,8.71,7.74,22.65H39.11q0-6-2.61-8.81a9.2,9.2,0,0,0-7.07-2.8,9.17,9.17,0,0,0-7.06,2.8q-2.62,2.8-2.62,8.42Z"/><path class="a2a84c1a-5791-4eb3-ab3b-7cac01cea8ec" d="M127.57,96H88.47v13.36q0,4.65,2.61,7.16A9.73,9.73,0,0,0,98.14,119q5.61,0,7.46-3.29a17.88,17.88,0,0,0,2.22-6.58h19.75q0,13-7.94,20.9a27.81,27.81,0,0,1-9.29,6.39,30.68,30.68,0,0,1-12.2,2.32q-9.28,0-15.77-3.87A26.2,26.2,0,0,1,69.5,115.74a72.31,72.31,0,0,1-.78-11V72.38a72.17,72.17,0,0,1,.78-11A26.2,26.2,0,0,1,82.37,42.18q6.48-3.87,15.77-3.87a31.31,31.31,0,0,1,12.29,2.33A27.38,27.38,0,0,1,119.82,47q7.74,8.71,7.75,21.88ZM88.47,80.51h19.35V69.28q0-5.61-2.61-8.42a10.31,10.31,0,0,0-14.13,0q-2.61,2.8-2.61,8.42Z"/><path class="a2a84c1a-5791-4eb3-ab3b-7cac01cea8ec" d="M140.92-.21h19.74V109.93q0,5.61,2,7.65t7.64,2.61v18.58a64.27,64.27,0,0,1-12.19-1.06,21,21,0,0,1-9.29-4.17,17.9,17.9,0,0,1-5.91-8.22q-2-5.32-2-14Z"/><path class="a2a84c1a-5791-4eb3-ab3b-7cac01cea8ec" d="M178.08,19.54V-.21h19.75V19.54Zm0,118.07V39.47h19.75v98.14Z"/><path class="a2a84c1a-5791-4eb3-ab3b-7cac01cea8ec" d="M214.08,137.61V39.47h19.75V49h.38a28,28,0,0,1,7.45-7.65,19.23,19.23,0,0,1,11.13-3,22.6,22.6,0,0,1,7.36,1.26,17.14,17.14,0,0,1,6.58,4.16,21.09,21.09,0,0,1,4.65,7.45,31.34,31.34,0,0,1,1.74,11.13v75.3H253.38V69.67c0-3.61-.85-6.45-2.52-8.52a8.72,8.72,0,0,0-7.16-3.09q-5.62,0-7.75,3.48T233.83,71.6v66Z"/><path class="a2a84c1a-5791-4eb3-ab3b-7cac01cea8ec" d="M346.48,96h-39.1v13.36q0,4.65,2.61,7.16a9.73,9.73,0,0,0,7.06,2.52c3.75,0,6.23-1.1,7.46-3.29a17.88,17.88,0,0,0,2.22-6.58h19.75q0,13-7.94,20.9a27.81,27.81,0,0,1-9.29,6.39,30.68,30.68,0,0,1-12.2,2.32q-9.29,0-15.77-3.87a26.2,26.2,0,0,1-12.87-19.16,72.31,72.31,0,0,1-.78-11V72.38a72.17,72.17,0,0,1,.78-11,26.2,26.2,0,0,1,12.87-19.17q6.48-3.87,15.77-3.87a31.39,31.39,0,0,1,12.3,2.33A27.43,27.43,0,0,1,338.73,47q7.74,8.71,7.75,21.88Zm-39.1-15.48h19.35V69.28q0-5.61-2.61-8.42a10.31,10.31,0,0,0-14.13,0q-2.61,2.8-2.61,8.42Z"/><path class="a2a84c1a-5791-4eb3-ab3b-7cac01cea8ec" d="M361,137.61V117.87h19.75v19.74Z"/></svg>