<svg xmlns="http://www.w3.org/2000/svg" viewBox="0 0 456.38 155.91">
  <defs>
    <style>
      .a {
        opacity: 0.8;
      }

      .b {
        fill: #fff;
      }
    </style>
  </defs>
  <g class="a">
    <g>
      <path class="b" d="M74,118.17a38.67,38.67,0,0,1-8.11,8.66,35.85,35.85,0,0,1-10.78,5.81,40.29,40.29,0,0,1-13,2,39.26,39.26,0,0,1-16.4-3.41,36.79,36.79,0,0,1-12.9-9.58,45.91,45.91,0,0,1-8.38-14.46,50.94,50.94,0,0,1-3-17.69A45.84,45.84,0,0,1,4.5,72.66a45.15,45.15,0,0,1,8.66-14.1A42.7,42.7,0,0,1,26.33,48.8,37.88,37.88,0,0,1,43,45.11a49.43,49.43,0,0,1,12,1.47,38.67,38.67,0,0,1,10.5,4.24A24.29,24.29,0,0,1,73,57.64,15.87,15.87,0,0,1,75.81,67a9.56,9.56,0,0,1-15.2,7.74,8.31,8.31,0,0,1-3.23-4.61,18.58,18.58,0,0,0,.92-6.26,17.63,17.63,0,0,0-3.59-11.34q-3.59-4.51-11.33-4.51A19.59,19.59,0,0,0,32.88,51a28.09,28.09,0,0,0-8.3,7.92,40.79,40.79,0,0,0-5.52,11.61,48,48,0,0,0-2,14.19,49.79,49.79,0,0,0,2.21,15.2,34.73,34.73,0,0,0,6.26,11.79,27.72,27.72,0,0,0,9.86,7.56,30.73,30.73,0,0,0,13,2.67q11.43,0,18.06-3.78A30.48,30.48,0,0,0,77.47,107l1.47.74A37.46,37.46,0,0,1,74,118.17Z"/>
      <path class="b" d="M153.75,115.22a34.66,34.66,0,0,1-7,9.31,36.82,36.82,0,0,1-10.6,7,33.23,33.23,0,0,1-13.72,2.76,41,41,0,0,1-17.14-3.5,37.47,37.47,0,0,1-13.18-9.85A45.48,45.48,0,0,1,83.73,106a55.26,55.26,0,0,1-3-18.15,46.38,46.38,0,0,1,10.6-29.11,39.5,39.5,0,0,1,12.34-9.86,34.46,34.46,0,0,1,16.13-3.78A48.73,48.73,0,0,1,133.39,47a31.58,31.58,0,0,1,11.06,5.62,29.18,29.18,0,0,1,7.64,9.49,34.42,34.42,0,0,1,3.5,13.45H96.44c0,1-.06,2.12-.18,3.41s-.18,2.61-.18,4a49.41,49.41,0,0,0,2.21,14.84,38.86,38.86,0,0,0,6.45,12.53,29.88,29.88,0,0,0,10.68,8.57A33.77,33.77,0,0,0,130.35,122a28,28,0,0,0,16.12-4.7,22.11,22.11,0,0,0,9.12-11.52l1.48.37A34.06,34.06,0,0,1,153.75,115.22Zm-21.1-62.09Q128,48.24,120,48.24a15.42,15.42,0,0,0-9.31,3,34.53,34.53,0,0,0-7.18,7.1,35.87,35.87,0,0,0-4.7,8.2,33.85,33.85,0,0,0-2,6.35h7.56c2.21,0,4.39,0,6.54-.09l6.72-.18q3.51-.09,7.74-.09c1.85,0,3.57-.06,5.16-.19a14.31,14.31,0,0,0,4.24-.92,13.79,13.79,0,0,0,1.94-2.76,9.15,9.15,0,0,0,.64-3.87A16.27,16.27,0,0,0,132.65,53.13Z"/>
      <path class="b" d="M158.72,134.11v-2q8.47-.56,11.25-1.75a4.19,4.19,0,0,0,2.76-4.14V20.24a6.57,6.57,0,0,0-.28-2.22,4.19,4.19,0,0,0-1.56-1.65q-1.66-.93-5-2.86a49.13,49.13,0,0,0-5.53-2.86V9.55L186.73.89H188V127.11a4,4,0,0,0,.83,2.76,4.52,4.52,0,0,0,2.49,1.29,23.6,23.6,0,0,0,4.24.46c1.72.07,3.74.22,6.08.46v2Z"/>
      <path class="b" d="M206.08,134.11v-1.84c1.47-.12,2.95-.28,4.42-.46a18.28,18.28,0,0,0,4-.92,8.85,8.85,0,0,0,2.95-1.75,3.61,3.61,0,0,0,1.2-2.77V63.17a10.45,10.45,0,0,0-.28-2.58,3.7,3.7,0,0,0-1.56-2,34.24,34.24,0,0,0-4-2.21,50.69,50.69,0,0,0-4.88-2v-1.1l24.88-8.11h1.1v82.37a4,4,0,0,0,1.57,2.67,8.17,8.17,0,0,0,2.85,1.2,21.82,21.82,0,0,0,3.6.46,24.43,24.43,0,0,1,3.77.46v1.84Zm26.44-111a10,10,0,0,1-14.1-.09,9.57,9.57,0,0,1-2.94-7,9.32,9.32,0,0,1,2.85-7,10.47,10.47,0,0,1,14.19,0,9.33,9.33,0,0,1,2.86,7A9.64,9.64,0,0,1,232.52,23.09Z"/>
      <path class="b" d="M306.32,134.11v-2a41.77,41.77,0,0,0,7.92-1.19,3.64,3.64,0,0,0,2.95-3.78V80.67q0-10.68-4.06-17.23T299.5,56.9a18.52,18.52,0,0,0-10.13,2.58,55.1,55.1,0,0,0-9,7.56v60.44a4.66,4.66,0,0,0,1.29,2.67,5.57,5.57,0,0,0,2.21,1.2,13.73,13.73,0,0,0,3,.46,24.24,24.24,0,0,1,3.5.46v1.84H254.72v-1.84a24.1,24.1,0,0,0,7.28-1.66,4.38,4.38,0,0,0,3-4.24V63a6.86,6.86,0,0,0-.27-2.21,4.31,4.31,0,0,0-1.57-1.66L259.33,57a46.78,46.78,0,0,0-4.42-2.12V53.77l24.14-8.66h1.1V65l.37.19a67.29,67.29,0,0,1,5.05-6.73,43.62,43.62,0,0,1,6.88-6.54,38.22,38.22,0,0,1,8.45-4.88,24.34,24.34,0,0,1,9.55-1.94q10.65,0,16.34,7.92t5.69,20.46v54.17a2.71,2.71,0,0,0,1.2,2.21,8,8,0,0,0,2.86,1.38,27,27,0,0,0,3.59.74c1.29.19,2.49.34,3.59.46v1.66Z"/>
      <path class="b" d="M422,115.22a34.66,34.66,0,0,1-7,9.31,36.91,36.91,0,0,1-10.59,7,33.31,33.31,0,0,1-13.73,2.76,41,41,0,0,1-17.14-3.5,37.35,37.35,0,0,1-13.17-9.85A45.5,45.5,0,0,1,352,106a55.52,55.52,0,0,1-2.95-18.15,46.38,46.38,0,0,1,10.6-29.11A39.54,39.54,0,0,1,372,48.89a34.42,34.42,0,0,1,16.12-3.78A48.68,48.68,0,0,1,401.67,47a31.5,31.5,0,0,1,11.06,5.62,29.34,29.34,0,0,1,7.65,9.49,34.59,34.59,0,0,1,3.5,13.45H364.73c0,1-.07,2.12-.19,3.41s-.18,2.61-.18,4a49.73,49.73,0,0,0,2.21,14.84A38.86,38.86,0,0,0,373,110.25a29.92,29.92,0,0,0,10.69,8.57A33.73,33.73,0,0,0,398.63,122a28,28,0,0,0,16.13-4.7,22.21,22.21,0,0,0,9.12-11.52l1.47.37A33.72,33.72,0,0,1,422,115.22ZM400.94,53.13q-4.71-4.89-12.63-4.89a15.37,15.37,0,0,0-9.3,3,34.33,34.33,0,0,0-7.19,7.1,35.87,35.87,0,0,0-4.7,8.2,33.66,33.66,0,0,0-2,6.35h7.55c2.21,0,4.39,0,6.54-.09l6.73-.18q3.49-.09,7.74-.09c1.84,0,3.56-.06,5.16-.19a14.38,14.38,0,0,0,4.24-.92A13.7,13.7,0,0,0,405,68.7a9,9,0,0,0,.64-3.87A16.26,16.26,0,0,0,400.94,53.13Z"/>
    </g>
    <path class="b" d="M453.18,132.45a7.77,7.77,0,0,1-9.75-.12,6.12,6.12,0,0,1-1.95-4.76,6.9,6.9,0,0,1,1.95-5,6.6,6.6,0,0,1,4.93-2,6.09,6.09,0,0,1,4.82,2.12,7.53,7.53,0,0,1,1.83,5.1A6,6,0,0,1,453.18,132.45Z"/>
    <g>
      <path class="b" d="M367.25,149.28,367,153.7a.35.35,0,0,1-.36.34H356.32a.34.34,0,0,1-.36-.36.36.36,0,0,1,.34-.34,3.62,3.62,0,0,0,1.13-.26c.43-.22.62-.75.62-1.59V139.7c0-.82-.19-1.32-.57-1.56a3.36,3.36,0,0,0-1.28-.34.36.36,0,0,1-.31-.36.34.34,0,0,1,.36-.36h5a.34.34,0,0,1,.36.36.35.35,0,0,1-.34.34,3.24,3.24,0,0,0-1.27.36c-.34.19-.51.72-.51,1.56v11.77a1.9,1.9,0,0,0,.34,1.37,1.88,1.88,0,0,0,1.4.41h1.25c1.68,0,2.81-.36,3.34-1.13a7,7,0,0,0,.89-2.92.31.31,0,0,1,.31-.31C367.15,148.89,367.25,149.06,367.25,149.28Z"/>
      <path class="b" d="M373.11,154H369a.34.34,0,0,1-.36-.36.32.32,0,0,1,.36-.31,3.68,3.68,0,0,0,.75-.15c.43-.14.67-.6.67-1.37v-7.19c0-.77-.17-1.21-.5-1.35a2.85,2.85,0,0,0-.92-.14.37.37,0,0,1,0-.73,16.29,16.29,0,0,0,2.29-.28.38.38,0,0,1,.48.38v9.31c0,.72.17,1.16.46,1.3a3,3,0,0,0,.91.22.34.34,0,1,1,0,.67Zm-1.32-16.67a1.3,1.3,0,0,1,.31.86c0,.82-.34,1.21-1,1.21s-1-.39-1-1.21.36-1.22,1-1.22A.91.91,0,0,1,371.79,137.37Z"/>
      <path class="b" d="M385.67,143.14a1.85,1.85,0,0,0-1.4,1.35l-3.39,9.89a.34.34,0,0,1-.31.21h-.24a.34.34,0,0,1-.32-.21l-3.32-9.63a3,3,0,0,0-.79-1.37,1.85,1.85,0,0,0-.65-.24.33.33,0,0,1-.31-.33.34.34,0,0,1,.36-.37h3.61a.35.35,0,0,1,.36.37.34.34,0,0,1-.34.33c-.67.07-1,.36-1,.87a2,2,0,0,0,.12.65l2.6,8,2.65-8a2.46,2.46,0,0,0,.17-.72c0-.48-.39-.75-1.11-.82a.36.36,0,0,1-.36-.36.34.34,0,0,1,.36-.34h3.25a.34.34,0,0,1,.36.37A.32.32,0,0,1,385.67,143.14Z"/>
      <path class="b" d="M397.14,147.69c0,.12-.14.22-.36.22h-7.34v.4a5.79,5.79,0,0,0,1.23,3.85,3.13,3.13,0,0,0,2.5,1.21,3.54,3.54,0,0,0,3.15-2,.38.38,0,0,1,.63-.12.37.37,0,0,1,.07.38,4.4,4.4,0,0,1-4.09,2.82,4.49,4.49,0,0,1-3.54-1.64,6.91,6.91,0,0,1-1.37-4.5,7,7,0,0,1,1.47-4.71,4,4,0,0,1,3.25-1.54,3.83,3.83,0,0,1,3.1,1.44,5.93,5.93,0,0,1,1.3,4Zm-1.37-.7a5.1,5.1,0,0,0-1-3.22,2.54,2.54,0,0,0-2-.94,2.81,2.81,0,0,0-2.38,1.47,5.7,5.7,0,0,0-.82,2.69Z"/>
    </g>
    <g>
      <path class="b" d="M418.41,149a.36.36,0,0,1,.22.44,8.22,8.22,0,0,1-2.17,4.09,5.34,5.34,0,0,1-3.82,1.54,6,6,0,0,1-4.81-2.24,9.93,9.93,0,0,1-2.17-6.76,10.2,10.2,0,0,1,2.22-6.88,6.16,6.16,0,0,1,8.73-.87,1.32,1.32,0,0,0,.55.34c.17,0,.29-.22.34-.65a.37.37,0,0,1,.36-.34c.17,0,.29.15.29.36v4.12a.35.35,0,0,1-.36.36.3.3,0,0,1-.29-.29,6.39,6.39,0,0,0-1.16-2.65,4.27,4.27,0,0,0-3.58-1.8,4.68,4.68,0,0,0-4.43,3,12.09,12.09,0,0,0-1,5.08,9.74,9.74,0,0,0,1.52,5.65,4.73,4.73,0,0,0,4.06,2.29c2.43,0,4.07-1.52,4.94-4.57a.37.37,0,0,1,.5-.27Z"/>
      <path class="b" d="M432.36,154.42h-4.21a.34.34,0,0,1-.36-.36.32.32,0,0,1,.36-.32,5.91,5.91,0,0,0,.77-.12c.43-.14.65-.6.65-1.39v-5.06c0-2.43-.75-3.63-2.26-3.63s-2.55,1-3.13,2.89v5.8c0,.72.14,1.15.46,1.3a2.4,2.4,0,0,0,1,.21.34.34,0,0,1,.36.36.32.32,0,0,1-.36.32h-4.21a.34.34,0,0,1-.36-.36.32.32,0,0,1,.36-.32,2.87,2.87,0,0,0,.77-.14c.43-.15.67-.6.67-1.37V139.67c0-.72-.16-1.16-.48-1.33a2.79,2.79,0,0,0-.94-.14.34.34,0,0,1-.36-.36v0a.35.35,0,0,1,.36-.37,16.35,16.35,0,0,0,2.29-.26.38.38,0,0,1,.48.38v7.27a3.85,3.85,0,0,1,3.42-2.33c2.21,0,3.34,1.44,3.34,4.33v5.39c0,.72.17,1.15.48,1.3a2.22,2.22,0,0,0,.94.21.34.34,0,1,1,0,.68Z"/>
      <path class="b" d="M444.82,153.77a1.52,1.52,0,0,1-1.4,1c-1,0-1.44-.68-1.49-2.07a3.81,3.81,0,0,1-3.46,2.12,3.17,3.17,0,0,1-2.26-.85,3.24,3.24,0,0,1-1-2.45c0-2.53,1.86-3.92,5.51-4.19l1-.07v-.43c0-2.41-.82-3.64-2.41-3.64a2.21,2.21,0,0,0-2.19,1.28c.39.07.58.36.58.87,0,.69-.29,1-.89,1s-1-.38-1-1.18a2.41,2.41,0,0,1,.94-1.8,3.8,3.8,0,0,1,2.65-1c2.4,0,3.61,1.4,3.61,4.21v4.88c0,1.62.21,2.41.69,2.41a.6.6,0,0,0,.51-.31c.14-.22.31-.34.43-.24A.34.34,0,0,1,444.82,153.77Zm-3-5.66-.84,0c-2.84.17-4.26,1.25-4.26,3.22a2.61,2.61,0,0,0,.6,1.81,1.74,1.74,0,0,0,1.44.67,3.09,3.09,0,0,0,2.14-.86,3.24,3.24,0,0,0,.92-1.59Z"/>
      <path class="b" d="M452.51,153.55a2.83,2.83,0,0,1-2.28,1.4c-1.52,0-2.26-1-2.26-3v-8.2H446.6a.34.34,0,0,1-.37-.36v0a.37.37,0,0,1,.34-.36,1.94,1.94,0,0,0,1.44-.89,6.28,6.28,0,0,0,.63-2.19.34.34,0,0,1,.36-.31c.19,0,.31.14.31.36v2.91H452a.34.34,0,0,1,.37.36v.17a.34.34,0,0,1-.37.36h-2.67v7.75c0,1.63.41,2.45,1.28,2.45a1.7,1.7,0,0,0,1.32-.7c.19-.21.44-.26.58-.07A.32.32,0,0,1,452.51,153.55Z"/>
    </g>
  </g>
</svg>
