<svg id="b091a4ac-a9b1-4ced-b598-20b636b2b13c" data-name="レイヤー 1" xmlns="http://www.w3.org/2000/svg" viewBox="0 0 33 33"><title>number1_01</title><path d="M10.7.52a6.84,6.84,0,0,1,2.76.56A7.22,7.22,0,0,1,15.7,2.6a7.08,7.08,0,0,1,1.52,2.26,7,7,0,0,1,.56,2.78V25.32a7,7,0,0,1-.56,2.78,7.08,7.08,0,0,1-1.52,2.26,7.22,7.22,0,0,1-2.24,1.52,6.84,6.84,0,0,1-2.76.56H7.46a6.84,6.84,0,0,1-2.76-.56,7.22,7.22,0,0,1-2.24-1.52A7.08,7.08,0,0,1,.94,28.1a7,7,0,0,1-.56-2.78V7.64A7,7,0,0,1,.94,4.86,7.08,7.08,0,0,1,2.46,2.6,7.22,7.22,0,0,1,4.7,1.08,6.84,6.84,0,0,1,7.46.52ZM1.3,25.32a5.79,5.79,0,0,0,.46,2.32A6.52,6.52,0,0,0,3,29.56V3.4A6.52,6.52,0,0,0,1.76,5.32,5.79,5.79,0,0,0,1.3,7.64Zm9.4,6.16a6.3,6.3,0,0,0,2.6-.56l-8.88-28v27.8a5.92,5.92,0,0,0,3,.8Zm-3.24-30A5.85,5.85,0,0,0,5.06,2l8.88,28V2.4a6.67,6.67,0,0,0-1.52-.68,6,6,0,0,0-1.72-.24Zm9.4,6.16a5.82,5.82,0,0,0-.42-2.2,6.76,6.76,0,0,0-1.1-1.84V29.36a6.76,6.76,0,0,0,1.1-1.84,5.82,5.82,0,0,0,.42-2.2Z"/><path d="M28.14,31.6h4.48v.88H19.74V31.6h4.48V1.76L20.9,5.16h-1L24.22.64h3.92ZM25,31.6h1.72V1.52H25Z"/></svg>