<svg id="a3c9a8fb-9541-4525-809e-cd892e35ca94" data-name="レイヤー 1" xmlns="http://www.w3.org/2000/svg" viewBox="0 0 60 60"><title>number1_04</title><path d="M18.41,2.34a11.79,11.79,0,0,1,4.79,1A12.75,12.75,0,0,1,27.09,6a12.51,12.51,0,0,1,2.63,3.92,12,12,0,0,1,1,4.83V45.37a12,12,0,0,1-1,4.83,12.51,12.51,0,0,1-2.63,3.92,12.75,12.75,0,0,1-3.89,2.64,11.79,11.79,0,0,1-4.79,1H12.79a11.75,11.75,0,0,1-4.79-1A12.42,12.42,0,0,1,1.47,50.2a12,12,0,0,1-1-4.83V14.7a12,12,0,0,1,1-4.83A12.42,12.42,0,0,1,8,3.31a11.75,11.75,0,0,1,4.79-1ZM2.1,45.37a10.2,10.2,0,0,0,.79,4,11.32,11.32,0,0,0,2.19,3.33V7.34a11.32,11.32,0,0,0-2.19,3.33,10.2,10.2,0,0,0-.79,4ZM18.41,56.06a10.79,10.79,0,0,0,4.51-1L7.51,6.43V54.68a10.25,10.25,0,0,0,5.28,1.38ZM12.79,4a10.08,10.08,0,0,0-4.17.83L24,53.5V5.6a11.16,11.16,0,0,0-2.64-1.18,10.22,10.22,0,0,0-3-.41ZM29.1,14.7a10,10,0,0,0-.73-3.82,11.61,11.61,0,0,0-1.91-3.2V52.39a11.61,11.61,0,0,0,1.91-3.2,10,10,0,0,0,.73-3.82Z"/><path d="M59.5,2.27V57.73H52.7V30.8h-19L52.63,2.27H59.5ZM36.8,29.13H52.7v-24Zm20.27,27V3.8h-3V56.13Z"/></svg>