<svg id="afd83e94-fb08-42b5-b623-0fc66a1d2276" data-name="レイヤー 1" xmlns="http://www.w3.org/2000/svg" viewBox="0 0 60 60"><title>number1_03</title><path d="M19,1.36a12.21,12.21,0,0,1,4.95,1,13.15,13.15,0,0,1,4,2.72,12.84,12.84,0,0,1,2.73,4.06,12.46,12.46,0,0,1,1,5V45.86a12.46,12.46,0,0,1-1,5A12.84,12.84,0,0,1,28,54.91a13.15,13.15,0,0,1-4,2.72,12.21,12.21,0,0,1-4.95,1H13.2a12.21,12.21,0,0,1-4.95-1,13.15,13.15,0,0,1-4-2.72A12.84,12.84,0,0,1,1.5,50.85a12.46,12.46,0,0,1-1-5V14.14a12.46,12.46,0,0,1,1-5A12.84,12.84,0,0,1,4.23,5.09a13.15,13.15,0,0,1,4-2.72,12.21,12.21,0,0,1,4.95-1ZM2.15,45.86A10.56,10.56,0,0,0,3,50a11.35,11.35,0,0,0,2.26,3.44V6.53A11.35,11.35,0,0,0,3,10a10.56,10.56,0,0,0-.83,4.17ZM19,56.92a11.17,11.17,0,0,0,4.66-1L7.75,5.6V55.48a10.52,10.52,0,0,0,5.45,1.44ZM13.2,3.08A10.39,10.39,0,0,0,8.9,4L24.83,54.26V4.73A11.93,11.93,0,0,0,22.1,3.51,10.86,10.86,0,0,0,19,3.08ZM30.07,14.14a10.47,10.47,0,0,0-.75-4,11.87,11.87,0,0,0-2-3.3V53.11a11.59,11.59,0,0,0,2-3.3,10.47,10.47,0,0,0,.75-4Z"/><path d="M59.5,17a13,13,0,0,1-1.81,7.15,8.68,8.68,0,0,1-4.87,3.77,11.21,11.21,0,0,1,4.87,4.73,15.1,15.1,0,0,1,1.81,7.53v5.1a14.13,14.13,0,0,1-1,5.23A13.47,13.47,0,0,1,56,54.69a12.1,12.1,0,0,1-3.89,2.84,11.42,11.42,0,0,1-4.83,1H35.53V57h11.7a9.45,9.45,0,0,0,2.76-.4,10.06,10.06,0,0,0,2.48-1.11v-26a9.6,9.6,0,0,0-4.6-1.15l-8.75-.07V26.77h2.22l9-.14a8.09,8.09,0,0,0,1.12-.08,7.37,7.37,0,0,0,1-.21V3.8a7.73,7.73,0,0,0-3.59-.86H37V1.36H48.88a9.71,9.71,0,0,1,4.15.9A10.51,10.51,0,0,1,56.37,4.7a12.2,12.2,0,0,1,2.28,3.59,11.38,11.38,0,0,1,.85,4.42Zm-5.38,8.53A7.88,7.88,0,0,0,57,22V8.47A9.23,9.23,0,0,0,54.1,4.81ZM57,35a10.45,10.45,0,0,0-2.87-4.23V54.26A11.17,11.17,0,0,0,57,50Z"/></svg>