<svg id="a4090b39-8d59-4510-9e49-0a0dcd7d282d" data-name="レイヤー 1" xmlns="http://www.w3.org/2000/svg" viewBox="0 0 60 60"><title>number1_02</title><path d="M18.53,2.18a12,12,0,0,1,4.83,1,12.78,12.78,0,0,1,3.91,2.66,12.44,12.44,0,0,1,2.66,3.95,12.16,12.16,0,0,1,1,4.86V45.52a12.16,12.16,0,0,1-1,4.86,12.44,12.44,0,0,1-2.66,3.95A12.78,12.78,0,0,1,23.36,57a11.94,11.94,0,0,1-4.83,1H12.87a11.93,11.93,0,0,1-4.82-1,12.82,12.82,0,0,1-3.92-2.66,12.58,12.58,0,0,1-2.65-3.95,12.16,12.16,0,0,1-1-4.86V14.63a12.16,12.16,0,0,1,1-4.86A12.58,12.58,0,0,1,4.13,5.82,12.82,12.82,0,0,1,8.05,3.16a11.94,11.94,0,0,1,4.82-1ZM2.11,45.52a10.35,10.35,0,0,0,.8,4.06,11.38,11.38,0,0,0,2.2,3.35V7.22a11.25,11.25,0,0,0-2.2,3.35,10.35,10.35,0,0,0-.8,4.06ZM18.53,56.29a11,11,0,0,0,4.55-1L7.56,6.31V54.89a10.3,10.3,0,0,0,5.31,1.4ZM12.87,3.86a10.18,10.18,0,0,0-4.19.84l15.52,49V5.47a11.52,11.52,0,0,0-2.66-1.19,10.38,10.38,0,0,0-3-.42ZM29.3,14.63a10.18,10.18,0,0,0-.73-3.85,11.72,11.72,0,0,0-1.93-3.21v45a11.72,11.72,0,0,0,1.93-3.21,10.18,10.18,0,0,0,.73-3.85Z"/><path d="M41.88,56.36H59.29v1.53H34.47L57.75,9.52Q56.84,3.87,49,3.79l-2-.14q-4.81-.13-7.55,1.68a6.58,6.58,0,0,0-3.07,5.87l-.21,5.17-1.61-.07.21-5.1a8,8,0,0,1,3.83-7.27Q41.8,1.9,47.09,2L49,2.11q10.74.21,10.53,9.65v5.66c0,.47,0,.94-.07,1.4s-.11.77-.18,1.19a3.74,3.74,0,0,1-.31,1Zm-2.31,0,18.32-38.1L58,12.11,36.57,56.36Z"/></svg>