<svg id="b7b32b0e-f85e-403f-824b-7aba94399758" data-name="レイヤー 1" xmlns="http://www.w3.org/2000/svg" viewBox="0 0 60 60"><title>smp</title><path d="M19.39.76a12.52,12.52,0,0,1,5.05,1A13,13,0,0,1,31.32,8.7a12.78,12.78,0,0,1,1,5.09V46.14a12.78,12.78,0,0,1-1,5.09,13.13,13.13,0,0,1-6.88,6.92,12.52,12.52,0,0,1-5.05,1H13.46a12.49,12.49,0,0,1-5.05-1,13.13,13.13,0,0,1-4.1-2.79,13.32,13.32,0,0,1-2.79-4.13,12.78,12.78,0,0,1-1-5.09V13.79a12.78,12.78,0,0,1,1-5.09A13.25,13.25,0,0,1,4.31,4.56a13.1,13.1,0,0,1,4.1-2.78,12.49,12.49,0,0,1,5.05-1ZM2.18,46.14A10.61,10.61,0,0,0,3,50.39a11.6,11.6,0,0,0,2.3,3.51V6A11.48,11.48,0,0,0,3,9.54a10.58,10.58,0,0,0-.85,4.25ZM19.39,57.41a11.43,11.43,0,0,0,4.75-1L7.89,5.07V56a10.75,10.75,0,0,0,5.57,1.46ZM13.46,2.51a10.84,10.84,0,0,0-4.4.88L25.32,54.71V4.2A11.63,11.63,0,0,0,22.53,3a10.93,10.93,0,0,0-3.14-.44Zm17.2,11.28a10.7,10.7,0,0,0-.77-4,12.2,12.2,0,0,0-2-3.37V53.53a12,12,0,0,0,2-3.36,10.7,10.7,0,0,0,.77-4Z"/><path d="M51.3,57.63h8.2v1.61H35.93V57.63h8.2V3L38.05,9.25h-1.9l8-8.27H51.3Zm-5.71,0h3.15v-55H45.59Z"/></svg>