<svg xmlns="http://www.w3.org/2000/svg" width="24.742" height="6.412" viewBox="0 0 24.742 6.412"><defs><style>.a{fill:#1a1a1a;}</style></defs><g transform="translate(-233.629 -3240.956)"><path class="a" d="M237,3240.956l1.042,2.111,2.329.339-1.685,1.643.4,2.32-2.083-1.1-2.083,1.1.4-2.32-1.685-1.643,2.329-.339Z"/><path class="a" d="M246,3240.956l1.042,2.111,2.329.339-1.685,1.643.4,2.32-2.083-1.1-2.083,1.1.4-2.32-1.685-1.643,2.329-.339Z"/><path class="a" d="M255,3240.956l1.042,2.111,2.329.339-1.685,1.643.4,2.32-2.083-1.1-2.083,1.1.4-2.32-1.685-1.643,2.329-.339Z"/></g></svg>